<svg width="750" height="687" viewBox="0 0 750 687" fill="none" xmlns="http://www.w3.org/2000/svg">
<path d="M385.934 345.543C385.182 345.412 384.638 344.615 384.91 343.862L384.926 343.79L385.022 343.746C385.646 343.442 386.463 343.514 387.007 343.993L387.039 344.007L387.055 344.05C387.631 344.876 387.327 346.035 386.367 346.557C385.374 347.049 384.077 346.716 383.501 345.76L383.453 345.658V345.499C383.485 344.485 383.949 343.514 384.734 342.776L385.038 342.486L385.47 342.66C387.023 343.268 388.288 344.456 389.04 345.76C389.841 347.078 390.257 348.512 390.529 349.903C391.057 352.728 391.121 355.48 391.858 358.189C393.202 363.636 396.132 368.576 398.534 373.733C400.871 378.861 402.872 384.424 402.664 390.189C402.456 395.926 400.743 401.387 398.742 406.646L398.582 406.617C399.67 401.112 401.063 395.651 400.999 390.189C400.983 384.728 399.366 379.383 397.285 374.168C395.284 368.909 393.026 363.708 391.249 358.334C390.305 355.654 389.857 352.815 389.184 350.164C388.528 347.542 387.455 344.876 384.926 343.761L385.662 343.63C385.07 344.123 384.702 344.833 384.606 345.572L384.542 345.311C384.702 345.731 385.438 346.006 385.918 345.789C386.431 345.615 386.719 344.876 386.447 344.384L386.495 344.442C386.238 344.137 385.678 343.978 385.23 344.137L385.342 344.022C385.102 344.471 385.374 345.18 385.982 345.398L385.934 345.543Z" fill="#EEBA2B" fill-opacity="0.5"/>
<path d="M380.075 337.937C379.499 337.083 378.97 336.271 378.314 335.663C377.673 335.04 376.905 334.663 376.073 334.504C375.288 334.287 374.28 334.49 373.703 335.272C373.143 336.04 373.175 337.054 373.575 337.865C374.424 339.502 375.8 340.878 377.353 341.935C378.89 343.065 380.667 343.906 382.716 344.514V344.673C380.539 345.007 378.186 344.427 376.313 343.225C375.384 342.631 374.6 341.834 373.959 340.965C373.319 340.125 372.839 339.125 372.695 338.082C372.551 337.025 372.727 335.953 373.255 335.026C373.511 334.576 373.863 334.113 374.376 333.78C374.904 333.446 375.56 333.244 376.201 333.258C377.513 333.273 378.666 334.026 379.322 334.939C379.979 335.851 380.219 336.894 380.235 337.894L380.075 337.937Z" fill="#EEBA2B" fill-opacity="0.5"/>
<path d="M387.311 344.239C386.735 342.834 386.447 341.342 386.415 339.835C386.399 338.285 386.511 337.054 385.838 335.909C385.134 334.736 384.157 333.49 382.973 332.548C381.788 331.592 380.379 330.882 378.954 330.317L379.755 330.013C379.338 332.36 380.475 334.794 380.987 337.358C381.276 338.618 381.484 339.951 381.724 341.168C381.98 342.356 382.396 343.587 383.677 344.166L383.629 344.311C382.877 344.268 382.14 343.848 381.66 343.297C381.164 342.747 380.811 342.124 380.523 341.486C380.011 340.183 379.675 338.98 379.306 337.72C378.954 336.445 378.666 335.199 378.442 333.867C378.234 332.548 378.138 331.1 378.682 329.752L378.954 329.101L379.499 329.434C380.843 330.288 382.076 331.259 383.309 332.215C384.509 333.215 385.806 334.055 386.911 335.301C387.471 335.909 387.807 336.822 387.839 337.619C387.871 338.43 387.791 339.169 387.711 339.878C387.583 341.298 387.519 342.732 387.471 344.21L387.311 344.239Z" fill="#EEBA2B" fill-opacity="0.5"/>
<path d="M384.397 342.747C383.917 342.24 383.773 341.878 383.869 341.486C383.965 341.284 384.189 341.052 384.221 340.835C384.237 340.617 384.093 340.414 383.901 340.255C383.469 339.936 383.229 339.618 383.037 339.284C382.925 338.908 382.877 338.502 383.005 337.865L383.133 337.778C383.837 337.821 384.317 338.169 384.606 338.575C384.846 339.009 384.958 339.516 384.766 340.052C384.686 340.313 384.638 340.545 384.734 340.762C384.83 340.965 385.118 341.168 385.23 341.414C385.39 341.878 385.198 342.399 384.557 342.761L384.397 342.747Z" fill="#EEBA2B" fill-opacity="0.5"/>
<path d="M376.825 338.72C377.561 339.024 377.946 339.357 378.154 339.835C378.218 340.096 378.186 340.443 378.346 340.675C378.474 340.921 378.762 341.052 379.066 341.124C379.691 341.269 380.171 341.486 380.635 341.733C381.051 342.037 381.436 342.385 381.852 343.007L381.788 343.152C381.051 343.442 380.347 343.355 379.755 343.109C379.178 342.79 378.682 342.341 378.442 341.733C378.314 341.428 378.186 341.168 377.93 340.994C377.706 340.806 377.289 340.733 377.033 340.545C376.553 340.125 376.361 339.473 376.681 338.763L376.825 338.72Z" fill="#EEBA2B" fill-opacity="0.5"/>
<path d="M409.1 290.103C410.492 289.046 412.013 288.133 413.662 287.423C414.479 287.061 415.327 286.743 416.208 286.482C417.024 286.265 418.017 285.844 419.057 286.351C419.538 286.598 419.842 287.148 419.826 287.626C419.842 288.119 419.682 288.553 419.49 288.959C419.089 289.785 418.529 290.422 418.065 291.117L415.119 295.275L409.212 303.576C408.219 304.937 407.227 306.372 405.946 307.632C404.713 308.907 403 310.037 400.967 310.254L400.006 310.341L400.247 309.486C402.008 303.214 404.089 296.999 406.602 290.944C407.195 289.437 407.931 287.873 408.475 286.438C408.699 285.729 408.827 285.004 408.619 284.454C408.427 283.903 407.883 283.556 407.163 283.512C405.69 283.425 404.153 284.338 402.84 285.279C401.511 286.265 400.295 287.423 398.966 288.524C397.637 289.625 396.148 290.697 394.291 291.117C393.395 291.335 392.402 291.335 391.505 291.204C390.609 291.074 389.76 290.828 388.912 290.654C388.064 290.48 387.215 290.364 386.415 290.48C385.598 290.61 384.862 291.002 384.301 291.552C383.149 292.667 382.748 294.304 383.037 295.84C383.325 297.376 384.125 298.824 385.102 300.142C386.078 301.461 387.263 302.663 388.56 303.735C391.153 305.894 394.131 307.617 397.125 309.341L396.773 309.805C394.195 308.066 391.554 306.401 388.88 304.807C387.535 304.01 386.19 303.214 384.83 302.46C383.453 301.707 382.108 300.881 380.699 300.374C379.29 299.838 377.754 299.722 376.489 300.331C375.192 300.881 374.584 302.171 375.096 303.358C375.544 304.575 376.729 305.43 378.122 305.966C379.515 306.502 381.083 306.879 382.604 307.342C385.662 308.197 388.704 309.052 391.81 309.689C393.347 310.008 394.867 310.283 396.196 309.993C396.532 309.921 396.853 309.819 397.125 309.674C397.445 309.515 397.797 309.312 398.245 309.124C398.678 308.936 399.462 308.762 400.134 309.138C400.807 309.53 401.031 310.138 401.063 310.674C401.127 311.862 400.215 312.731 399.206 313.079C398.694 313.267 398.085 313.311 397.493 313.137C396.901 312.977 396.388 312.557 396.116 312.079C395.588 311.109 395.7 310.022 396.436 309.153C397.253 308.24 398.694 308.168 399.622 308.559C400.583 308.907 401.351 309.689 401.735 310.471C402.12 311.268 402.28 312.079 402.392 312.818L403.08 317.178L405.802 334.591C406.234 337.503 406.682 340.4 407.05 343.341C407.419 346.267 407.483 349.324 406.938 352.264C406.442 355.219 405.578 358.044 404.889 360.898C404.185 363.752 403.576 366.62 403.064 369.518C402.056 375.283 401.287 381.107 400.967 386.974L400.807 386.959C400.903 381.092 401.287 375.211 402.216 369.402C402.68 366.49 403.224 363.578 403.865 360.695C404.489 357.813 405.273 354.973 405.69 352.105C406.65 346.383 405.017 340.617 404.169 334.808L401.383 317.396L400.679 313.05C400.471 311.63 400.038 310.413 398.95 310.008C398.437 309.805 397.957 309.892 397.733 310.153C397.461 310.428 397.397 311.022 397.605 311.369C397.781 311.703 398.149 311.818 398.63 311.659C399.11 311.514 399.478 311.08 399.446 310.761C399.446 310.573 399.334 310.413 399.302 310.413C399.27 310.399 399.174 310.37 398.886 310.471C398.598 310.587 398.277 310.775 397.893 310.964C397.461 311.167 397.013 311.311 396.564 311.413C394.739 311.76 393.026 311.384 391.457 311.065C388.304 310.384 385.214 309.515 382.172 308.573C380.651 308.081 379.13 307.704 377.577 307.067C376.057 306.458 374.488 305.343 373.927 303.706C373.639 302.924 373.623 301.982 374.023 301.171C374.424 300.36 375.176 299.766 375.993 299.404C377.625 298.65 379.579 298.882 381.083 299.505C382.652 300.113 383.965 300.968 385.31 301.736C386.671 302.533 388.015 303.344 389.344 304.17C391.986 305.836 394.595 307.559 397.141 309.341L396.789 309.819C393.811 308.081 390.817 306.314 388.192 304.097C386.879 302.996 385.694 301.75 384.686 300.403C383.677 299.056 382.812 297.578 382.492 295.912C382.156 294.275 382.572 292.436 383.853 291.161C384.477 290.538 385.358 290.06 386.302 289.915C387.231 289.77 388.176 289.872 389.056 290.031C390.801 290.393 392.482 290.828 394.083 290.379C395.684 289.973 397.045 288.959 398.293 287.873C399.558 286.772 400.743 285.569 402.136 284.483C402.84 283.961 403.56 283.44 404.409 283.049C405.225 282.614 406.202 282.324 407.243 282.368C408.299 282.368 409.5 283.02 409.868 284.034C410.252 285.033 410.028 285.975 409.772 286.801C409.18 288.437 408.523 289.843 407.931 291.393C405.53 297.433 403.368 303.576 401.543 309.79L400.823 309.037C402.408 308.878 403.849 307.994 405.017 306.835C406.202 305.691 407.163 304.315 408.187 302.953L414.319 294.782L417.376 290.712C417.873 290.016 418.449 289.35 418.817 288.684C419.201 288.003 419.33 287.177 418.721 286.83C418.129 286.467 417.184 286.714 416.352 286.931C415.487 287.148 414.639 287.423 413.822 287.742C412.173 288.394 410.621 289.22 409.196 290.219L409.1 290.103Z" fill="#EEBA2B" fill-opacity="0.5"/>
<path d="M387.199 307.299C388.192 307.081 389.04 307.183 389.809 307.53C390.177 307.748 390.497 308.095 390.897 308.255C391.281 308.414 391.714 308.443 392.162 308.414C393.074 308.356 393.907 308.472 394.723 308.646C395.524 308.907 396.292 309.254 397.013 309.892L396.981 310.037C396.036 310.341 395.14 310.326 394.291 310.196C393.459 310.008 392.642 309.718 391.922 309.211C391.538 308.979 391.153 308.776 390.737 308.718C390.305 308.646 389.825 308.747 389.376 308.718C388.528 308.588 387.759 308.182 387.135 307.429L387.199 307.299Z" fill="#EEBA2B" fill-opacity="0.5"/>
<path d="M399.43 310.152C399.846 309.196 400.423 308.516 401.191 307.994C401.591 307.748 402.12 307.588 402.472 307.284C402.84 306.994 403.064 306.589 403.256 306.169C403.609 305.3 404.073 304.546 404.553 303.807C405.113 303.112 405.738 302.446 406.618 301.852L406.778 301.91C406.826 302.938 406.506 303.836 406.042 304.662C405.498 305.444 404.841 306.154 403.961 306.676C403.544 306.951 403.144 307.241 402.872 307.617C402.584 307.98 402.44 308.472 402.152 308.863C401.527 309.602 400.647 310.109 399.526 310.268L399.43 310.152Z" fill="#EEBA2B" fill-opacity="0.5"/>
<path d="M393.987 303.271C394.675 303.677 394.98 304.097 395.06 304.619C395.06 304.894 394.915 305.227 394.996 305.488C395.06 305.749 395.268 305.937 395.54 306.111C396.084 306.43 396.436 306.806 396.773 307.212C397.029 307.661 397.221 308.153 397.221 308.878L397.093 308.965C396.308 308.907 395.764 308.559 395.348 308.139C394.996 307.675 394.739 307.125 394.739 306.487C394.723 306.183 394.691 305.908 394.515 305.676C394.339 305.444 393.971 305.285 393.779 305.053C393.443 304.561 393.411 303.952 393.827 303.315L393.987 303.271Z" fill="#EEBA2B" fill-opacity="0.5"/>
<path d="M399.158 309.428C398.902 308.646 398.902 308.081 399.142 307.516C399.302 307.241 399.606 306.98 399.686 306.676C399.782 306.372 399.686 306.038 399.542 305.749C399.206 305.14 399.03 304.59 398.886 304.025C398.822 303.431 398.822 302.851 399.03 302.084L399.174 302.026C399.942 302.417 400.375 303.025 400.599 303.677C400.759 304.343 400.743 305.068 400.439 305.734C400.295 306.067 400.182 306.386 400.215 306.705C400.231 307.038 400.455 307.386 400.487 307.748C400.487 308.429 400.102 309.08 399.318 309.486L399.158 309.428Z" fill="#EEBA2B" fill-opacity="0.5"/>
<path d="M434.858 326.015C434.25 323.915 433.37 321.742 431.609 320.351C430.728 319.67 429.671 319.177 428.567 318.975C427.462 318.757 426.326 318.902 425.637 319.569C424.917 320.235 424.613 321.307 424.212 322.35C423.812 323.393 423.46 324.422 423.172 325.479C422.627 327.565 422.467 329.753 423.332 331.636L422.275 331.332C425.653 329.245 429.287 327.522 433.033 326.087C433.994 325.754 434.89 325.378 435.979 325.146C436.523 325.044 437.1 324.972 437.708 325.088C438.316 325.189 438.925 325.537 439.277 326.015C440.478 327.942 439.837 330.129 438.653 331.679C437.452 333.287 435.611 334.374 433.674 334.982C431.737 335.619 429.751 335.924 427.75 336.271C426.742 336.402 425.701 336.474 424.645 336.3C423.62 336.155 422.531 335.619 422.019 334.678C421.507 333.736 421.587 332.722 421.651 331.81C421.715 330.882 421.795 329.97 421.891 329.043C422.083 327.203 422.355 325.349 422.707 323.538C423.06 321.727 423.46 319.902 422.787 318.395C422.467 317.627 421.923 316.976 421.219 316.642C420.514 316.309 419.666 316.338 418.897 316.613C417.264 317.178 416.32 318.699 416.032 320.38C415.503 323.828 416.208 327.507 417.616 330.781C418.321 332.404 419.329 334.069 420.418 335.359C420.674 335.605 420.77 335.634 421.026 335.619C421.283 335.591 421.603 335.446 421.795 335.228C422.211 334.808 422.323 333.997 422.243 333.157L422.996 333.852C421.699 333.736 420.482 333.736 419.922 334.403C419.634 334.736 419.554 335.069 419.73 335.359C419.81 335.547 420.034 335.793 420.242 336.141C420.466 336.503 420.546 337.054 420.434 337.474C420.21 338.299 419.698 338.806 419.345 339.299L418.193 340.791L415.839 343.775C414.271 345.76 412.67 347.745 411.037 349.686C409.372 351.612 407.643 353.496 405.882 355.335L405.754 355.248C408.988 351.337 411.965 347.281 414.911 343.196L417.12 340.125L418.241 338.589C418.609 338.068 418.977 337.59 419.041 337.213C419.089 337.025 419.057 336.938 418.961 336.764C418.865 336.576 418.625 336.344 418.417 335.982C418.193 335.634 418.081 335.098 418.161 334.663C418.257 334.229 418.465 333.838 418.737 333.519C419.265 332.867 420.162 332.49 420.93 332.389C421.715 332.259 422.451 332.302 423.124 332.346L423.828 332.389L423.876 333.041C423.94 333.997 423.972 335.199 423.044 336.228C422.595 336.706 421.971 337.039 421.235 337.126C420.482 337.271 419.57 336.865 419.169 336.387C417.793 334.779 416.848 333.157 416.016 331.375C414.431 327.84 413.838 323.972 414.479 320.119C414.671 319.149 415.039 318.163 415.679 317.294C416.32 316.411 417.264 315.701 418.369 315.339C419.442 314.947 420.802 314.933 421.891 315.512C422.964 316.063 423.652 317.005 424.036 317.975C424.805 319.989 424.212 321.973 423.796 323.726C423.364 325.508 422.996 327.319 422.723 329.13C422.579 330.042 422.467 330.955 422.371 331.868C422.275 332.766 422.179 333.678 422.563 334.432C422.964 335.185 423.828 335.634 424.757 335.793C425.701 335.967 426.694 335.909 427.686 335.808C429.639 335.518 431.641 335.141 433.482 334.504C435.323 333.852 437.036 332.853 438.044 331.317C438.557 330.578 438.893 329.753 438.989 328.898C439.069 328.072 438.909 327.145 438.444 326.566C437.996 325.986 437.132 325.943 436.251 326.174C435.387 326.392 434.458 326.812 433.546 327.174C429.896 328.652 426.422 330.448 423.076 332.418L422.339 332.853L422.019 332.128C421.026 329.839 421.299 327.377 421.923 325.189C422.227 324.088 422.627 323.016 423.044 321.973C423.492 320.974 423.844 319.8 424.885 318.873C425.957 317.932 427.558 317.859 428.759 318.163C430.008 318.453 431.176 319.033 432.089 319.858C433.914 321.539 434.634 323.813 435.019 325.986L434.858 326.015Z" fill="#EEBA2B" fill-opacity="0.5"/>
<path d="M419.282 325.914C419.602 326.696 419.634 327.304 419.426 327.898C419.282 328.202 418.993 328.507 418.945 328.825C418.865 329.159 418.977 329.477 419.153 329.781C419.554 330.39 419.762 330.969 419.954 331.549C420.002 331.853 420.066 332.157 420.066 332.49C420.082 332.635 420.114 332.853 420.066 332.983C420.05 333.026 419.986 332.997 419.858 333.07C419.73 333.128 419.778 333.215 419.794 333.215C419.794 333.2 419.938 333.258 419.938 333.2L419.858 333.07C419.874 333.026 420.002 333.012 420.066 333.07C420.114 333.113 420.146 333.157 420.162 333.2C420.194 333.273 420.21 333.461 419.97 333.548C419.65 333.635 419.442 333.432 419.346 333.36C419.153 333.186 419.025 333.099 418.881 332.939C418.609 332.664 418.433 332.331 418.289 331.998C418.065 331.317 418.001 330.578 418.273 329.854C418.385 329.506 418.465 329.159 418.417 328.825C418.353 328.492 418.129 328.13 418.065 327.768C418.033 327.044 418.369 326.334 419.137 325.87L419.282 325.914Z" fill="#EEBA2B" fill-opacity="0.5"/>
<path d="M423.316 334.171C424.084 333.707 424.789 333.62 425.477 333.751C425.797 333.852 426.149 334.098 426.502 334.127C426.854 334.171 427.206 334.055 427.51 333.881C428.135 333.49 428.695 333.258 429.255 333.012C429.848 332.824 430.424 332.693 431.288 332.534L431.4 332.635C431.32 333.461 430.696 334.084 430.008 334.46C429.271 334.779 428.439 334.895 427.638 334.692C427.254 334.605 426.886 334.547 426.534 334.62C426.165 334.678 425.797 334.924 425.429 334.996C424.677 335.098 423.956 334.881 423.3 334.316L423.316 334.171Z" fill="#EEBA2B" fill-opacity="0.5"/>
<path d="M425.925 326.609C425.845 327.275 425.669 327.623 425.285 327.855C425.061 327.942 424.709 327.956 424.533 328.116C424.34 328.26 424.308 328.507 424.324 328.753C424.388 329.26 424.324 329.637 424.228 330.028C424.036 330.39 423.78 330.723 423.252 331.158H423.092C422.563 330.68 422.467 330.115 422.531 329.608C422.691 329.115 422.98 328.652 423.524 328.362C423.78 328.217 424.004 328.072 424.1 327.84C424.196 327.623 424.148 327.275 424.26 327.029C424.517 326.58 425.093 326.319 425.829 326.479L425.925 326.609Z" fill="#EEBA2B" fill-opacity="0.5"/>
<path d="M386.943 372.473C386.751 372.473 386.575 372.342 386.543 372.154C386.447 371.632 386.383 371.111 386.351 370.604C386.206 368.996 386.271 367.518 386.527 366.33C386.719 365.447 387.103 364.592 387.487 363.781C387.871 362.926 388.24 362.129 388.4 361.304C388.656 360.014 388.384 358.827 388.112 357.566C387.775 356.002 387.423 354.394 388.096 352.597C389.056 349.946 391.025 347.339 392.418 345.615C393.795 343.92 394.563 342.747 394.899 341.095C394.948 340.892 395.156 340.748 395.38 340.791C395.604 340.835 395.764 341.037 395.716 341.24C395.348 343.022 394.499 344.311 393.09 346.079C391.73 347.759 389.809 350.28 388.88 352.829C388.288 354.437 388.592 355.886 388.928 357.407C389.2 358.682 389.488 360.014 389.216 361.434C389.04 362.347 388.64 363.23 388.256 364.071C387.887 364.853 387.519 365.664 387.343 366.49C387.087 367.605 387.039 369.01 387.167 370.546C387.215 371.039 387.279 371.531 387.359 372.038C387.391 372.241 387.247 372.429 387.023 372.473C386.991 372.473 386.975 372.473 386.943 372.473Z" fill="#B27409" fill-opacity="0.5"/>
<path d="M395.3 341.544C395.284 341.544 395.252 341.544 395.236 341.53C395.012 341.501 394.851 341.298 394.899 341.095C394.964 340.806 395.012 340.501 395.044 340.183C395.06 339.965 395.268 339.806 395.492 339.835C395.716 339.849 395.892 340.038 395.86 340.255C395.828 340.603 395.78 340.921 395.716 341.226C395.668 341.414 395.508 341.544 395.3 341.544Z" fill="#B27409" fill-opacity="0.5"/>
<path d="M354.124 364.708C350.586 364.708 347.08 364.317 343.702 363.52C342.229 363.172 340.724 362.868 339.251 362.564C336.242 361.956 333.136 361.333 330.142 360.304C329.838 360.203 329.47 360.087 329.086 359.957C328.573 359.783 328.013 359.609 327.421 359.392C327.196 359.319 327.084 359.102 327.164 358.914C327.245 358.711 327.485 358.609 327.709 358.682C328.301 358.885 328.861 359.073 329.358 359.232C329.758 359.363 330.126 359.478 330.43 359.594C333.36 360.594 336.45 361.217 339.428 361.825C340.9 362.129 342.421 362.434 343.91 362.781C351.338 364.534 359.519 364.302 366.947 362.144C367.796 361.898 368.644 361.622 369.445 361.333C369.669 361.246 369.909 361.347 369.989 361.55C370.069 361.738 369.957 361.97 369.749 362.043C368.933 362.332 368.068 362.608 367.188 362.868C362.993 364.085 358.543 364.708 354.124 364.708Z" fill="#B27409" fill-opacity="0.5"/>
<path d="M367.075 362.883C367.043 362.883 367.027 362.883 366.995 362.883C365.875 362.709 364.578 362.405 363.169 361.956C360.768 361.217 358.366 360.217 356.605 359.493C355.837 359.174 355.181 358.913 354.684 358.725C353.852 358.406 353.019 358.059 352.235 357.726C348.921 356.349 345.799 355.046 342.101 355.654C340.66 355.886 339.203 356.262 337.65 356.798C336.882 357.045 336.114 357.334 335.281 357.682C332.496 358.827 330.35 359.319 327.901 359.42C327.789 359.42 327.677 359.42 327.565 359.42C327.325 359.42 327.148 359.247 327.148 359.044C327.148 358.827 327.325 358.653 327.565 358.653C327.661 358.653 327.757 358.653 327.869 358.653C330.606 358.551 332.688 357.914 334.945 356.987C335.793 356.639 336.578 356.335 337.362 356.074C338.963 355.524 340.468 355.147 341.957 354.901C345.911 354.263 349.289 355.669 352.571 357.03C353.356 357.363 354.172 357.711 354.988 358.015C355.517 358.204 356.173 358.479 356.942 358.798C358.687 359.522 361.072 360.507 363.425 361.231C364.802 361.666 366.051 361.97 367.139 362.129C367.364 362.158 367.524 362.361 367.476 362.564C367.444 362.752 367.268 362.883 367.075 362.883Z" fill="#B27409" fill-opacity="0.5"/>
<path d="M361.312 355.567C361.104 355.567 360.928 355.437 360.896 355.234C360.608 352.844 358.318 349.28 356.653 346.687C355.805 345.354 355.116 344.297 354.844 343.645C353.468 340.27 352.619 337.43 352.091 334.403C351.402 330.375 350.698 327.246 349.321 324.074C348.441 322.031 347.224 320.032 346.055 318.105C345.879 317.816 345.719 317.541 345.543 317.251C345.303 316.874 344.951 316.396 344.502 315.802C344.374 315.628 344.406 315.397 344.598 315.266C344.791 315.15 345.047 315.194 345.175 315.368C345.639 315.976 346.023 316.469 346.263 316.889C346.439 317.164 346.616 317.454 346.776 317.729C347.96 319.684 349.193 321.713 350.09 323.784C351.642 327.377 352.363 331.085 352.907 334.287C353.42 337.256 354.252 340.052 355.629 343.37C355.869 343.964 356.557 345.05 357.358 346.296C359.071 348.947 361.408 352.583 361.728 355.147C361.76 355.364 361.584 355.553 361.36 355.567C361.344 355.567 361.328 355.567 361.312 355.567Z" fill="#B27409" fill-opacity="0.5"/>
<path d="M361.84 355.929C361.712 355.929 361.6 355.886 361.52 355.784C361.376 355.625 361.392 355.393 361.568 355.248C362.321 354.669 362.593 353.438 362.369 351.598C362.145 349.686 361.472 347.571 360.976 346.021C360.8 345.485 360.64 345.007 360.56 344.673C360.191 343.326 359.983 342.022 359.791 340.777C359.423 338.401 359.087 336.17 357.726 333.881L357.39 333.302C355.933 330.853 354.572 328.55 353.003 326.203C353.003 326.189 353.003 326.189 352.987 326.174C352.667 325.682 352.331 325.189 352.011 324.682C350.634 322.611 349.209 320.452 347.592 318.497C346.856 317.584 345.879 316.744 344.598 315.889C344.406 315.773 344.374 315.527 344.502 315.368C344.63 315.194 344.887 315.15 345.079 315.281C346.423 316.164 347.464 317.062 348.249 318.033C349.897 320.018 351.322 322.191 352.715 324.291C353.035 324.784 353.371 325.291 353.692 325.783C353.708 325.783 353.708 325.798 353.708 325.798C355.293 328.159 356.669 330.491 358.11 332.939L358.462 333.519C359.871 335.924 360.239 338.227 360.624 340.661C360.816 341.907 361.008 343.181 361.36 344.485C361.44 344.818 361.6 345.282 361.76 345.803C362.241 347.295 362.961 349.526 363.201 351.511C363.441 353.655 363.089 355.06 362.097 355.828C362.032 355.9 361.936 355.929 361.84 355.929Z" fill="#B27409" fill-opacity="0.5"/>
<path d="M341.781 341.544C341.653 341.544 341.525 341.486 341.445 341.385C341.156 341.023 340.868 340.646 340.58 340.27C339.139 338.386 337.779 336.605 335.761 335.228C335.009 334.707 334.289 334.142 333.584 333.591C332.928 333.084 332.239 332.548 331.551 332.07C329.486 330.622 326.588 329.868 324.027 329.188C323.738 329.115 323.45 329.043 323.162 328.956L322.858 328.883C321.801 328.594 320.729 328.289 319.688 328.55C318.583 328.84 318.423 329.318 318.119 330.1C318.023 330.375 317.911 330.694 317.735 331.027C317.431 331.607 316.967 331.983 316.582 332.244C316.39 332.389 316.182 332.519 315.99 332.65C315.206 333.142 314.533 333.577 314.357 334.461C314.261 335.026 314.469 335.431 314.725 335.895C314.949 336.3 315.174 336.706 315.206 337.227C315.238 337.691 315.077 338.14 314.933 338.589C314.805 338.937 314.693 339.256 314.693 339.545C314.693 339.603 314.693 339.632 314.693 339.676C314.725 339.878 314.565 340.067 314.325 340.096C314.101 340.125 313.893 339.965 313.877 339.763C313.861 339.676 313.861 339.589 313.861 339.516C313.861 339.14 314.005 338.734 314.133 338.357C314.261 337.966 314.389 337.604 314.373 337.271C314.357 336.909 314.181 336.576 313.989 336.242C313.717 335.721 313.396 335.141 313.541 334.33C313.781 333.128 314.693 332.534 315.51 332.012C315.702 331.896 315.894 331.781 316.07 331.65C316.534 331.332 316.806 331.027 316.999 330.694C317.143 330.404 317.239 330.129 317.335 329.854C317.655 329.014 317.943 328.217 319.464 327.826C320.729 327.493 321.977 327.84 323.098 328.145L323.402 328.231C323.674 328.304 323.963 328.376 324.251 328.463C326.876 329.144 329.854 329.926 332.047 331.462C332.768 331.954 333.456 332.49 334.112 333.012C334.817 333.562 335.521 334.113 336.258 334.62C338.371 336.069 339.844 337.981 341.269 339.835C341.541 340.197 341.829 340.574 342.117 340.936C342.261 341.11 342.213 341.342 342.021 341.472C341.957 341.515 341.877 341.544 341.781 341.544Z" fill="#B27409" fill-opacity="0.5"/>
<path d="M340.532 341.718C340.308 341.718 340.132 341.573 340.116 341.37C340.1 341.168 340.276 340.979 340.5 340.965C340.596 340.95 340.676 340.95 340.772 340.95C341.124 340.921 341.397 340.907 341.605 340.82C341.797 340.733 342.069 340.501 342.357 339.545C342.501 339.067 342.613 338.546 342.693 337.966C342.837 336.894 342.869 335.764 342.901 334.663C342.901 334.098 342.917 333.504 342.949 332.939C342.965 332.548 342.998 332.172 343.014 331.795C343.19 328.869 343.366 325.856 342.293 323.089C341.877 322.046 341.285 321.133 340.66 320.162C340.276 319.569 339.876 318.96 339.54 318.323C338.563 316.555 338.019 314.295 338.003 311.978C337.987 311.76 338.179 311.587 338.403 311.587C338.643 311.601 338.819 311.746 338.819 311.963C338.851 314.18 339.363 316.309 340.276 317.975C340.612 318.583 340.996 319.192 341.365 319.757C341.989 320.727 342.645 321.712 343.078 322.828C344.214 325.74 344.022 328.84 343.846 331.838C343.83 332.215 343.798 332.592 343.782 332.968C343.75 333.533 343.734 334.113 343.718 334.678C343.702 335.793 343.67 336.952 343.51 338.068C343.43 338.676 343.318 339.226 343.158 339.748C342.853 340.748 342.517 341.255 341.973 341.501C341.621 341.66 341.253 341.689 340.82 341.704C340.74 341.718 340.644 341.718 340.564 341.718C340.548 341.718 340.532 341.718 340.532 341.718Z" fill="#B27409" fill-opacity="0.5"/>
<path d="M325.868 348.078C323.546 348.078 320.969 347.585 318.968 346.933C315.43 345.76 313.044 343.239 311.347 341.168C311.219 340.994 311.251 340.762 311.427 340.632C311.619 340.501 311.876 340.545 312.02 340.704C313.733 342.819 315.942 345.122 319.24 346.209C322.025 347.122 326.188 347.745 328.749 346.948C330.51 346.412 332.047 345.282 333.536 344.195C334.961 343.152 336.434 342.08 338.147 341.457C338.547 341.313 338.931 341.197 339.315 341.124C339.748 341.023 340.148 340.994 340.5 340.965C340.724 340.95 340.916 341.11 340.932 341.313C340.948 341.53 340.788 341.704 340.564 341.718C340.26 341.747 339.908 341.776 339.508 341.863C339.155 341.935 338.803 342.037 338.451 342.167C336.85 342.747 335.425 343.79 334.048 344.789C332.512 345.919 330.911 347.093 329.005 347.672C328.093 347.962 327.004 348.078 325.868 348.078Z" fill="#B27409" fill-opacity="0.5"/>
<path d="M343.11 338.401C342.982 338.401 342.869 338.343 342.773 338.256C342.405 337.807 342.005 337.358 341.605 336.909C339.524 334.547 337.362 332.114 336.93 329.245C336.642 327.348 335.921 325.653 335.153 323.857C334.769 322.929 334.369 321.973 334.016 320.988C333.056 318.207 333.472 315.701 335.201 313.904C335.233 313.875 335.249 313.846 335.281 313.832C335.921 313.18 336.658 312.688 337.362 312.21C337.634 312.036 337.891 311.847 338.147 311.674C338.339 311.543 338.595 311.572 338.739 311.731C338.883 311.905 338.851 312.137 338.659 312.267C338.403 312.456 338.131 312.644 337.843 312.832C337.17 313.282 336.482 313.76 335.873 314.354L335.857 314.368C335.857 314.382 335.841 314.397 335.841 314.397C333.76 316.541 334.305 319.308 334.817 320.756C335.137 321.713 335.537 322.654 335.937 323.567C336.674 325.334 337.458 327.145 337.747 329.144C338.147 331.795 340.228 334.142 342.245 336.431C342.645 336.88 343.046 337.329 343.43 337.778C343.574 337.952 343.542 338.184 343.366 338.314C343.286 338.372 343.19 338.401 343.11 338.401Z" fill="#B27409" fill-opacity="0.5"/>
<path d="M338.291 342.196C338.243 342.196 338.195 342.182 338.131 342.167C337.042 341.747 335.954 341.255 334.897 340.777C332.191 339.531 329.63 338.357 326.684 338.357C326.636 338.357 326.588 338.357 326.54 338.357C325.964 338.357 325.387 338.343 324.827 338.328C322.826 338.299 320.937 338.256 318.952 338.719C317.447 339.067 316.118 339.487 314.741 340.038C314.037 340.299 313.3 340.632 312.404 341.037C312.212 341.139 312.02 341.226 311.844 341.284C311.636 341.37 311.395 341.284 311.299 341.081C311.219 340.892 311.315 340.661 311.523 340.588C311.684 340.53 311.844 340.443 312.036 340.371C312.948 339.936 313.701 339.603 314.405 339.328C315.83 338.763 317.207 338.343 318.744 337.981C320.841 337.503 322.794 337.532 324.843 337.575C325.435 337.59 326.044 337.59 326.652 337.59C326.668 337.59 326.668 337.59 326.684 337.59C329.838 337.59 332.592 338.864 335.265 340.081C336.306 340.559 337.378 341.052 338.451 341.457C338.659 341.544 338.771 341.762 338.675 341.964C338.611 342.109 338.451 342.196 338.291 342.196Z" fill="#B27409" fill-opacity="0.5"/>
<path d="M316.326 332.331C316.118 332.331 315.942 332.186 315.91 331.983C315.878 331.607 315.798 331.288 315.638 330.969C315.51 330.709 315.318 330.506 315.11 330.288C314.693 329.839 314.213 329.332 314.373 328.376C314.485 327.811 314.853 327.377 315.206 326.942C315.446 326.667 315.67 326.392 315.798 326.116C316.086 325.421 316.086 324.769 316.086 324.001C316.086 323.813 316.086 323.625 316.102 323.436C316.102 323.321 316.102 323.205 316.102 323.089C316.214 321.292 316.871 319.902 318.071 318.989C319.608 317.816 322.026 317.439 325.227 317.859C325.451 317.888 325.612 318.076 325.58 318.279C325.548 318.497 325.339 318.641 325.115 318.612C322.138 318.221 319.944 318.555 318.6 319.583C317.575 320.351 317.015 321.553 316.935 323.132C316.935 323.234 316.919 323.335 316.919 323.436C316.919 323.639 316.919 323.828 316.919 324.001C316.919 324.813 316.919 325.566 316.566 326.392C316.39 326.768 316.118 327.101 315.862 327.406C315.558 327.782 315.27 328.13 315.19 328.492C315.094 329.101 315.366 329.39 315.734 329.781C315.958 330.028 316.214 330.288 316.39 330.665C316.582 331.056 316.694 331.462 316.742 331.911C316.758 332.128 316.598 332.302 316.358 332.331C316.358 332.331 316.342 332.331 316.326 332.331Z" fill="#B27409" fill-opacity="0.5"/>
<path d="M336.002 335.301C335.825 335.301 335.665 335.199 335.601 335.026C335.473 334.62 335.345 334.2 335.217 333.78C334.465 331.346 333.744 329.028 332.015 326.957C331.727 326.609 331.151 326.03 330.494 325.363C328.605 323.494 325.772 320.67 324.779 318.366C324.315 317.28 324.283 316.367 324.715 315.686C325.179 314.947 326.14 314.498 327.565 314.31C327.933 314.267 328.285 314.296 328.637 314.31C329.118 314.339 329.582 314.368 329.934 314.209C330.318 314.035 330.558 313.731 330.815 313.412C331.183 312.948 331.583 312.412 332.48 312.34C333.6 312.239 334.513 312.919 335.313 313.513C335.473 313.629 335.617 313.745 335.777 313.847C335.954 313.977 335.986 314.223 335.841 314.383C335.713 314.556 335.441 314.585 335.265 314.455C335.105 314.354 334.945 314.223 334.785 314.107C334.08 313.571 333.344 313.021 332.56 313.093C332.063 313.137 331.839 313.397 331.487 313.847C331.199 314.223 330.879 314.629 330.302 314.89C329.742 315.15 329.15 315.107 328.573 315.078C328.253 315.049 327.949 315.034 327.677 315.063C326.524 315.223 325.772 315.556 325.435 316.063C325.131 316.541 325.179 317.222 325.548 318.091C326.492 320.249 329.262 323.016 331.103 324.842C331.807 325.551 332.367 326.116 332.688 326.493C334.497 328.681 335.265 331.172 336.018 333.577C336.146 333.983 336.274 334.403 336.402 334.808C336.466 335.011 336.338 335.228 336.13 335.286C336.082 335.301 336.05 335.301 336.002 335.301Z" fill="#B27409" fill-opacity="0.5"/>
<path d="M314.581 340.067C314.517 340.067 314.453 340.052 314.389 340.023C314.325 339.994 314.261 339.965 314.181 339.936L313.989 339.835C313.284 339.516 312.548 339.183 311.956 338.705C310.179 337.329 310.643 336.228 311.139 335.069C311.251 334.779 311.363 334.504 311.475 334.185C311.764 333.302 311.507 332.722 311.219 332.056C310.947 331.447 310.643 330.766 310.771 329.854C311.203 326.754 313.845 324.769 316.262 323.132C316.454 323.016 316.71 323.045 316.854 323.219C316.983 323.393 316.935 323.625 316.758 323.755C314.357 325.363 311.988 327.159 311.603 329.941C311.491 330.665 311.732 331.201 311.988 331.766C312.292 332.461 312.644 333.258 312.26 334.403C312.148 334.75 312.02 335.054 311.908 335.344C311.427 336.474 311.171 337.097 312.484 338.126C313.012 338.531 313.669 338.835 314.357 339.154L314.565 339.255C314.629 339.284 314.693 339.313 314.757 339.342C314.965 339.429 315.045 339.661 314.949 339.849C314.869 339.98 314.725 340.067 314.581 340.067Z" fill="#B27409" fill-opacity="0.5"/>
<path d="M384.59 377.847C384.445 377.847 384.301 377.789 384.237 377.659C384.221 377.644 384.205 377.63 384.189 377.615C384.189 377.601 384.173 377.601 384.173 377.586C383.373 376.471 382.428 375.138 381.436 373.849C379.483 371.299 377.193 369.184 374.76 366.939C374.328 366.533 373.879 366.128 373.431 365.708C372.262 364.621 371.222 363.665 370.245 362.781C369.941 362.506 369.621 362.231 369.317 361.956C366.499 359.478 364.034 357.537 361.584 355.842C361.424 355.726 361.248 355.611 361.072 355.509C360.912 355.393 360.752 355.277 360.592 355.176C359.503 354.452 358.35 353.785 357.23 353.119C355.789 352.279 354.316 351.41 352.923 350.439C352.075 349.845 351.242 349.222 350.442 348.614C348.569 347.209 346.632 345.76 344.534 344.644C343.894 344.297 343.11 343.717 342.293 343.094C341.637 342.602 340.964 342.095 340.308 341.66C340.196 341.602 340.116 341.472 340.116 341.342C340.116 341.139 340.292 340.965 340.532 340.965C340.612 340.965 340.692 340.994 340.772 341.037C341.461 341.486 342.149 342.008 342.821 342.5C343.606 343.109 344.358 343.674 344.951 343.978C347.112 345.137 349.065 346.6 350.97 348.02C351.771 348.628 352.603 349.251 353.42 349.831C354.78 350.787 356.253 351.656 357.678 352.482C358.799 353.148 359.967 353.829 361.072 354.553C361.248 354.669 361.408 354.77 361.568 354.886C361.728 355.002 361.904 355.118 362.081 355.234C364.562 356.943 367.043 358.899 369.893 361.405C370.197 361.68 370.517 361.956 370.822 362.245C371.798 363.115 372.855 364.071 374.023 365.172C374.472 365.592 374.904 365.997 375.352 366.403C377.802 368.663 380.123 370.807 382.124 373.414C383.117 374.704 384.061 376.036 384.862 377.166C384.894 377.195 384.91 377.239 384.942 377.268C385.054 377.456 384.99 377.688 384.798 377.789C384.734 377.833 384.654 377.847 384.59 377.847Z" fill="#B27409" fill-opacity="0.5"/>
<path d="M384.525 377.76C384.429 377.76 384.349 377.731 384.269 377.688C384.093 377.557 384.045 377.326 384.189 377.152C384.189 377.137 384.205 377.123 384.221 377.108C384.894 376.181 385.678 374.457 386.559 371.98C386.831 371.183 387.103 370.358 387.375 369.503C387.695 368.489 387.983 367.533 388.24 366.707C388.576 365.621 388.816 364.824 388.96 364.447C389.809 362.318 390.929 360.507 392.13 358.58C392.482 358.001 392.85 357.407 393.202 356.813C394.179 355.176 394.339 353.278 394.483 351.424C394.515 351.076 394.547 350.714 394.579 350.366C394.819 347.773 395.092 344.384 394.899 341.182V341.168C394.883 341.066 394.931 340.965 395.012 340.892C395.172 340.748 395.428 340.733 395.588 340.878C395.668 340.95 395.716 341.052 395.716 341.153C395.716 341.168 395.716 341.168 395.716 341.182C395.924 344.413 395.652 347.817 395.396 350.424C395.364 350.787 395.332 351.134 395.316 351.482C395.156 353.409 394.996 355.393 393.939 357.175C393.571 357.783 393.202 358.377 392.85 358.957C391.666 360.855 390.561 362.636 389.744 364.708C389.6 365.07 389.36 365.881 389.04 366.91C388.784 367.75 388.496 368.692 388.176 369.72C387.903 370.575 387.631 371.415 387.343 372.212C386.431 374.805 385.63 376.558 384.894 377.557C384.894 377.572 384.878 377.572 384.862 377.586C384.862 377.601 384.862 377.601 384.846 377.601C384.766 377.702 384.654 377.76 384.525 377.76Z" fill="#B27409" fill-opacity="0.5"/>
<path d="M379.146 349.816C379.034 349.816 378.906 349.773 378.826 349.686C378.042 348.845 377.065 348.034 375.656 347.049C375.048 346.615 374.424 346.18 373.799 345.76C372.663 344.992 371.494 344.195 370.453 343.355C368.036 341.414 365.346 339.082 364.066 336.054C363.633 335.026 363.297 334.011 362.961 333.026C362.273 330.969 361.616 329.028 360.239 327.145C359.663 326.377 358.943 325.595 357.982 324.697C357.822 324.552 357.822 324.306 357.982 324.161C358.142 324.016 358.414 324.016 358.574 324.161C359.567 325.088 360.319 325.899 360.912 326.71C362.385 328.695 363.041 330.694 363.761 332.809C364.082 333.78 364.418 334.779 364.85 335.779C366.051 338.647 368.66 340.892 370.998 342.79C372.006 343.601 373.175 344.384 374.296 345.151C374.904 345.572 375.544 346.006 376.169 346.441C377.609 347.469 378.618 348.309 379.45 349.179C379.611 349.338 379.595 349.584 379.418 349.715C379.338 349.787 379.242 349.816 379.146 349.816Z" fill="#B27409" fill-opacity="0.5"/>
<path d="M378.49 343.819C378.346 343.819 378.218 343.761 378.138 343.63C375.368 339.458 371.862 335.402 368.02 331.911C366.691 330.694 365.33 329.564 363.986 328.55C362.481 327.42 360.96 326.392 359.487 325.508C359.055 325.247 358.559 325.001 358.078 324.769C357.886 324.668 357.806 324.436 357.902 324.248C358.014 324.074 358.27 324.001 358.462 324.088C358.959 324.335 359.487 324.595 359.935 324.871C361.44 325.769 362.977 326.812 364.514 327.956C365.875 328.999 367.252 330.144 368.612 331.375C372.503 334.895 376.041 339.009 378.842 343.239C378.97 343.413 378.906 343.659 378.714 343.761C378.634 343.804 378.57 343.819 378.49 343.819Z" fill="#B27409" fill-opacity="0.5"/>
<path d="M385.006 292.798C384.942 292.798 384.894 292.783 384.846 292.769C384.622 292.682 384.526 292.465 384.622 292.276C384.782 291.914 384.942 291.523 385.134 290.987C385.278 290.581 385.406 290.147 385.518 289.727C385.934 288.264 386.367 286.743 387.919 285.844C389.424 284.961 390.993 284.714 392.594 285.12C394.98 285.743 397.381 287.872 399.014 290.842C399.11 291.031 399.03 291.262 398.822 291.364C398.614 291.451 398.373 291.378 398.261 291.19C396.757 288.408 394.547 286.409 392.37 285.859C391.009 285.511 389.664 285.729 388.368 286.482C387.087 287.235 386.719 288.539 386.319 289.915C386.206 290.35 386.078 290.799 385.918 291.219C385.71 291.784 385.55 292.204 385.39 292.566C385.31 292.711 385.166 292.798 385.006 292.798Z" fill="#B27409" fill-opacity="0.5"/>
<path d="M383.885 311.166C383.789 311.166 383.709 311.138 383.629 311.08C383.453 310.935 383.421 310.703 383.581 310.544C384.525 309.501 385.454 308.4 386.35 307.342C387.119 306.429 387.919 305.473 388.752 304.561C389.12 304.141 389.504 303.692 389.857 303.257C390.465 302.547 391.089 301.808 391.746 301.142C392.226 300.664 392.77 300.258 393.298 299.867C394.051 299.317 394.739 298.795 395.252 298.085C396.5 296.39 397.093 294.522 397.717 292.537C397.877 292.03 398.037 291.509 398.213 290.987C398.213 290.958 398.229 290.929 398.245 290.9C398.678 289.669 399.35 288.959 400.23 288.785C401.047 288.626 401.991 288.915 403.112 289.683C403.448 289.915 403.72 290.074 403.977 290.205C404.169 290.306 404.249 290.538 404.137 290.726C404.025 290.915 403.769 290.973 403.56 290.871C403.272 290.726 402.984 290.552 402.632 290.306C401.703 289.683 400.967 289.423 400.407 289.538C399.83 289.64 399.366 290.176 399.03 291.132C399.014 291.161 399.014 291.19 398.998 291.219C398.838 291.726 398.678 292.233 398.501 292.74C397.893 294.696 397.253 296.724 395.94 298.52C395.364 299.317 394.579 299.896 393.827 300.461C393.298 300.852 392.802 301.214 392.37 301.649C391.714 302.301 391.105 303.025 390.513 303.721C390.145 304.155 389.776 304.619 389.392 305.039C388.576 305.951 387.775 306.893 387.007 307.82C386.11 308.878 385.182 309.979 384.205 311.036C384.125 311.123 384.013 311.166 383.885 311.166Z" fill="#B27409" fill-opacity="0.5"/>
<path d="M379.034 312.094C378.826 312.094 378.634 311.934 378.618 311.731C378.458 309.327 377.481 307.052 375.368 304.141C373.895 302.084 372.375 299.534 372.375 296.159C372.375 295.087 372.567 294.073 372.743 293.102C372.855 292.421 372.983 291.726 373.047 291.016C373.223 289.031 372.855 287.365 371.878 285.743C371.462 285.048 370.934 284.367 370.261 283.642C369.973 283.338 369.669 283.034 369.349 282.744C369.189 282.585 369.189 282.353 369.365 282.194C369.525 282.049 369.781 282.049 369.941 282.208C370.277 282.513 370.582 282.831 370.886 283.15C371.606 283.903 372.166 284.628 372.615 285.381C373.639 287.105 374.056 288.973 373.879 291.074C373.815 291.813 373.687 292.537 373.559 293.232C373.367 294.217 373.207 295.145 373.207 296.159C373.207 298.708 374.023 300.896 376.057 303.721C377.61 305.85 379.226 308.472 379.451 311.688C379.467 311.891 379.291 312.079 379.066 312.094C379.05 312.094 379.05 312.094 379.034 312.094Z" fill="#B27409" fill-opacity="0.5"/>
<path d="M379.771 312.615C379.675 312.615 379.595 312.586 379.531 312.543C379.483 312.514 379.435 312.485 379.386 312.456L379.338 312.412C379.274 312.369 379.194 312.311 379.114 312.253C379.002 312.166 378.89 312.094 378.778 311.992C376.713 310.428 374.808 308.356 373.367 306.734C372.487 305.72 371.382 304.459 370.741 303.141C369.781 301.171 369.413 298.679 369.109 296.666C368.772 294.464 368.836 292.146 368.884 289.886C368.916 289.234 368.932 288.582 368.932 287.945C368.948 287.264 369.012 286.54 369.093 285.772C369.141 285.164 369.205 284.526 369.237 283.903C369.269 283.382 369.269 282.933 369.237 282.498C369.221 282.281 369.397 282.107 369.621 282.092C369.845 282.078 370.053 282.237 370.069 282.44C370.101 282.904 370.101 283.396 370.069 283.947C370.037 284.584 369.973 285.222 369.909 285.844C369.845 286.598 369.765 287.308 369.765 287.945C369.749 288.597 369.733 289.249 369.717 289.915C369.669 292.132 369.605 294.42 369.925 296.564C370.213 298.52 370.581 300.954 371.494 302.822C372.086 304.054 373.159 305.271 374.023 306.256C375.416 307.849 377.289 309.892 379.306 311.413C379.418 311.5 379.515 311.572 379.627 311.659C379.707 311.717 379.771 311.76 379.851 311.804L379.899 311.847C379.931 311.876 379.963 311.905 380.011 311.92C380.187 312.05 380.235 312.282 380.107 312.456C380.027 312.557 379.899 312.615 379.771 312.615Z" fill="#B27409" fill-opacity="0.5"/>
<path d="M400.311 289.538C400.166 289.538 400.022 289.466 399.958 289.35C398.133 286.308 395.236 282.165 391.089 281.252C390.353 281.093 389.648 281.209 388.896 281.339C388.304 281.441 387.711 281.542 387.071 281.513C386.126 281.47 385.438 281.107 384.782 280.76C384.365 280.542 383.965 280.325 383.485 280.18C381.644 279.63 379.835 280.05 377.914 280.499L377.545 280.586C375.192 281.122 373.063 282.382 370.998 283.585L370.79 283.715C370.597 283.831 370.341 283.773 370.213 283.599C370.101 283.425 370.149 283.179 370.341 283.078L370.549 282.947C372.663 281.701 374.856 280.427 377.353 279.847L377.706 279.76C379.659 279.311 381.676 278.833 383.741 279.456C384.301 279.63 384.75 279.862 385.198 280.093C385.822 280.427 386.367 280.716 387.119 280.76C387.647 280.789 388.176 280.687 388.736 280.6C389.536 280.456 390.369 280.311 391.281 280.513C395.748 281.499 398.79 285.815 400.679 288.973C400.791 289.162 400.711 289.394 400.519 289.495C400.455 289.524 400.391 289.538 400.311 289.538Z" fill="#B27409" fill-opacity="0.5"/>
<path d="M379.595 312.499C379.387 312.499 379.21 312.354 379.178 312.166C379.146 311.963 379.307 311.76 379.531 311.731C379.595 311.731 379.643 311.717 379.691 311.703C381.276 311.413 382.749 310.862 383.709 310.442C384.526 310.095 385.31 309.689 385.934 309.312C387.375 308.443 388.928 307.864 390.417 307.299C391.778 306.777 393.171 306.256 394.467 305.517C396.404 304.387 397.397 302.634 398.454 300.78C398.966 299.867 399.494 298.926 400.151 298.056C400.615 297.448 401.111 296.84 401.607 296.231C402.344 295.318 403.112 294.377 403.753 293.435C404.377 292.537 404.377 292.537 403.929 291.711L403.769 291.422C403.641 291.175 403.512 290.929 403.4 290.697C403.288 290.509 403.384 290.292 403.593 290.19C403.801 290.103 404.041 290.19 404.137 290.379C404.265 290.61 404.377 290.842 404.521 291.088L404.665 291.378C405.241 292.45 405.273 292.653 404.457 293.841C403.801 294.811 403.016 295.768 402.264 296.695C401.783 297.289 401.287 297.897 400.839 298.491C400.215 299.317 399.686 300.244 399.19 301.128C398.133 302.996 397.045 304.923 394.9 306.154C393.555 306.937 392.114 307.473 390.721 307.994C389.28 308.545 387.775 309.124 386.399 309.95C385.742 310.355 384.91 310.775 384.061 311.138C383.069 311.572 381.516 312.152 379.883 312.456C379.819 312.47 379.739 312.485 379.659 312.485C379.627 312.499 379.611 312.499 379.595 312.499Z" fill="#B27409" fill-opacity="0.5"/>
<path d="M379.37 312.34C379.274 312.34 379.178 312.311 379.098 312.238C378.922 312.094 378.922 311.862 379.066 311.702C379.258 311.5 379.451 311.297 379.643 311.094C382.156 308.197 384.013 303.822 384.461 299.664C384.734 297.173 384.942 294.739 384.589 292.465C384.189 289.828 383.101 287.8 381.163 286.062C379.771 284.816 377.353 284.41 375.688 284.656C375.224 284.729 374.584 285.004 373.879 285.308C373.399 285.526 372.887 285.757 372.39 285.917C372.182 285.989 371.942 285.888 371.862 285.7C371.782 285.497 371.894 285.279 372.102 285.207C372.567 285.048 373.047 284.83 373.527 284.628C374.28 284.294 374.984 283.99 375.56 283.903C377.369 283.642 380.075 284.034 381.74 285.526C383.789 287.351 384.99 289.596 385.406 292.363C385.774 294.724 385.55 297.202 385.278 299.737C384.814 304.097 382.941 308.53 380.283 311.558C380.091 311.789 379.883 312.007 379.691 312.21C379.595 312.296 379.483 312.34 379.37 312.34Z" fill="#B27409" fill-opacity="0.5"/>
<path d="M399.974 406.124C399.846 406.124 399.718 406.066 399.638 405.965C395.012 399.91 391.457 394.391 388.752 389.06C387.215 386.032 385.934 383.004 384.958 380.092C384.686 379.281 384.429 378.456 384.189 377.557C384.173 377.543 384.157 377.485 384.157 377.441C383.229 374.008 382.636 370.474 382.06 367.055C381.564 364.042 381.051 360.942 380.315 357.943C379.675 355.335 379.146 352.568 378.73 349.483C378.474 347.6 378.266 345.629 378.074 343.471C377.85 340.892 377.674 338.27 377.513 335.721L377.401 334.185C377.097 329.564 377.593 324.9 378.09 320.394L378.218 319.264C378.378 317.801 378.634 316.309 378.89 314.875C379.002 314.223 379.114 313.557 379.21 312.905C379.242 312.731 379.29 312.543 379.322 312.325L379.355 312.166C379.371 312.094 379.387 312.05 379.387 312.007C379.435 311.804 379.643 311.659 379.867 311.702C380.091 311.731 380.251 311.934 380.203 312.137C380.203 312.21 380.187 312.267 380.171 312.325L380.139 312.47C380.107 312.659 380.059 312.847 380.043 313.021C379.931 313.673 379.819 314.339 379.707 314.991C379.451 316.425 379.194 317.903 379.034 319.337L378.922 320.467C378.426 324.943 377.93 329.579 378.234 334.142L378.33 335.677C378.506 338.212 378.682 340.835 378.906 343.413C379.098 345.557 379.306 347.513 379.547 349.381C379.963 352.438 380.475 355.19 381.116 357.769C381.868 360.797 382.38 363.911 382.893 366.939C383.453 370.343 384.029 373.863 384.958 377.253C384.958 377.253 384.958 377.268 384.958 377.282C384.974 377.297 384.974 377.326 384.99 377.355C385.23 378.253 385.47 379.064 385.742 379.861C386.719 382.758 387.983 385.742 389.504 388.741C392.178 394.028 395.716 399.519 400.311 405.53C400.455 405.704 400.407 405.936 400.215 406.052C400.15 406.11 400.054 406.124 399.974 406.124Z" fill="#B27409" fill-opacity="0.5"/>
<path d="M387.775 369.996C387.663 369.996 387.567 369.952 387.487 369.88C387.327 369.72 387.327 369.489 387.487 369.329L387.727 369.112C388.384 368.532 388.992 367.982 389.52 367.388C389.825 367.04 390.129 366.722 390.433 366.388C391.842 364.853 393.186 363.404 393.715 361.362C394.275 359.203 394.803 357.407 396.196 355.379C398.213 352.424 398.758 350.888 397.941 347.571C397.381 345.282 396.308 342.587 395.076 340.385C394.98 340.197 395.06 339.965 395.268 339.878C395.46 339.777 395.716 339.849 395.828 340.038C397.077 342.298 398.165 345.05 398.742 347.397C399.622 350.946 399.03 352.684 396.901 355.784C395.572 357.711 395.06 359.449 394.531 361.536C393.955 363.766 392.546 365.273 391.057 366.881C390.753 367.2 390.449 367.533 390.161 367.866C389.6 368.489 388.944 369.083 388.304 369.662L388.064 369.88C387.983 369.952 387.887 369.996 387.775 369.996Z" fill="#B27409" fill-opacity="0.5"/>
<path d="M389.136 389.291C389.072 389.291 388.992 389.277 388.944 389.248C387.567 388.581 386.094 388.002 384.59 387.408C383.613 387.031 382.556 386.568 381.404 386.003C380.875 385.742 380.395 385.496 379.931 385.264C379.258 384.902 378.586 384.554 378.09 384.279L377.465 383.946C377.049 383.714 376.633 383.497 376.201 383.279C373.287 381.729 371.318 380.252 369.429 378.166C369.157 377.876 368.901 377.586 368.628 377.311C366.883 375.37 365.218 373.545 363.153 371.922C362.993 371.792 362.801 371.632 362.577 371.459C362.017 370.995 361.248 370.358 360.416 369.764C360.24 369.633 360.208 369.402 360.336 369.228C360.48 369.068 360.736 369.039 360.928 369.17C361.776 369.778 362.561 370.416 363.137 370.879C363.345 371.067 363.537 371.212 363.698 371.343C365.811 373.009 367.492 374.863 369.269 376.819C369.525 377.108 369.797 377.384 370.053 377.673C371.894 379.687 373.799 381.106 376.617 382.613C377.049 382.83 377.465 383.062 377.882 383.294L378.506 383.627C379.002 383.888 379.659 384.25 380.347 384.598C380.795 384.829 381.26 385.076 381.788 385.337C382.925 385.887 383.949 386.336 384.926 386.713C386.447 387.307 387.919 387.886 389.328 388.567C389.52 388.668 389.6 388.9 389.488 389.074C389.424 389.204 389.28 389.291 389.136 389.291Z" fill="#B27409" fill-opacity="0.5"/>
<path d="M353.388 392.71C352.715 392.71 352.011 392.667 351.274 392.594C350.122 392.478 348.921 392.261 347.688 391.971C347.464 391.913 347.336 391.711 347.4 391.508C347.448 391.305 347.688 391.175 347.896 391.233C349.097 391.522 350.25 391.725 351.37 391.841C353.5 392.058 355.373 391.928 356.781 391.493C358.014 391.117 359.167 390.392 360.304 389.712C361.168 389.176 362.065 388.625 362.977 388.219C365.266 387.234 367.796 386.626 370.694 386.38C370.71 386.38 370.726 386.38 370.742 386.38C370.742 386.38 370.742 386.38 370.758 386.365C371.558 386.307 372.358 386.336 373.127 386.365H373.399C374.103 386.394 374.68 386.409 375.272 386.365C376.585 386.278 378.042 385.786 379.338 384.974C379.531 384.859 379.787 384.902 379.915 385.076C380.043 385.25 379.995 385.496 379.803 385.612C378.378 386.481 376.793 387.032 375.336 387.118C374.712 387.162 374.087 387.162 373.367 387.133H373.095C372.31 387.104 371.574 387.075 370.822 387.133C370.806 387.133 370.806 387.133 370.79 387.133C370.79 387.133 370.774 387.133 370.758 387.133C367.956 387.379 365.523 387.959 363.329 388.915C362.465 389.291 361.632 389.798 360.752 390.334C359.583 391.059 358.382 391.798 357.054 392.218C355.997 392.536 354.78 392.71 353.388 392.71Z" fill="#B27409" fill-opacity="0.5"/>
<path d="M347.8 391.986C347.624 391.986 347.448 391.884 347.4 391.71C347.336 391.508 347.464 391.29 347.672 391.232C348.121 391.117 348.585 390.943 349.065 390.74C349.577 390.523 350.122 390.247 350.714 389.9C352.987 388.625 355.357 387.683 357.966 386.669C360.368 385.742 362.161 385.423 364.818 385.409C364.834 385.409 364.834 385.409 364.85 385.409C366.739 385.409 368.644 385.8 370.902 386.38C371.126 386.437 371.254 386.655 371.19 386.858C371.126 387.06 370.902 387.176 370.678 387.118C368.484 386.553 366.659 386.177 364.85 386.177C364.834 386.177 364.834 386.177 364.834 386.177C362.257 386.177 360.608 386.481 358.286 387.365C355.709 388.364 353.372 389.291 351.162 390.552C350.538 390.914 349.962 391.189 349.417 391.435C348.889 391.653 348.409 391.826 347.912 391.971C347.88 391.971 347.832 391.986 347.8 391.986Z" fill="#B27409" fill-opacity="0.5"/>
<path d="M360.512 395.1C360.095 395.1 359.647 395.086 359.199 395.042C356.621 394.84 354.06 394.043 351.114 392.551C350.922 392.449 350.842 392.218 350.954 392.029C351.066 391.841 351.322 391.783 351.514 391.884C354.364 393.318 356.814 394.086 359.263 394.289C361.648 394.477 363.617 394.144 365.138 393.275C366.499 392.493 367.764 391.392 368.885 390.421C369.429 389.958 369.989 389.393 370.581 388.799C371.19 388.205 371.814 387.582 372.471 387.002C372.663 386.829 372.887 386.64 373.111 386.466C373.287 386.322 373.543 386.351 373.687 386.51C373.847 386.669 373.815 386.901 373.639 387.046C373.431 387.205 373.223 387.394 373.047 387.553C372.407 388.118 371.798 388.726 371.19 389.32C370.581 389.929 370.021 390.494 369.461 390.986C368.308 391.971 366.995 393.101 365.571 393.927C364.194 394.709 362.497 395.1 360.512 395.1Z" fill="#B27409" fill-opacity="0.5"/>
<path d="M378.298 384.337C378.17 384.337 378.042 384.279 377.962 384.178C377.209 383.279 376.553 382.28 375.897 381.309C375.4 380.571 374.888 379.803 374.344 379.078C372.839 377.108 371.446 375.341 369.733 373.704C367.972 372.024 365.138 370.01 362.529 369.373C361.904 369.228 361.216 369.184 360.4 369.242C360.175 369.257 359.983 369.097 359.951 368.88C359.935 368.677 360.111 368.489 360.336 368.474C361.248 368.417 362.017 368.46 362.737 368.634C366.243 369.488 369.429 372.328 370.341 373.183C372.086 374.834 373.543 376.717 375.016 378.644C375.576 379.383 376.105 380.165 376.601 380.918C377.273 381.903 377.898 382.845 378.618 383.714C378.762 383.888 378.73 384.12 378.538 384.25C378.474 384.308 378.378 384.337 378.298 384.337Z" fill="#B27409" fill-opacity="0.5"/>
<path d="M381.596 386.046C381.58 386.046 381.548 386.046 381.532 386.046C380.843 385.945 380.171 385.815 379.515 385.67C379.499 385.67 379.483 385.67 379.467 385.655C374.28 384.525 369.381 382.135 366.051 379.093C364.45 377.615 362.321 375.269 361.328 372.458C361.248 372.226 361.168 371.995 361.104 371.777C360.832 370.995 360.576 370.271 360.287 369.619C360.207 369.416 360.111 369.228 359.999 369.025C359.903 368.837 359.983 368.605 360.191 368.518C360.4 368.417 360.64 368.503 360.752 368.692C360.864 368.909 360.96 369.112 361.056 369.329C361.36 370.01 361.616 370.749 361.888 371.546C361.968 371.763 362.048 371.995 362.129 372.226C363.057 374.892 365.09 377.137 366.643 378.557C369.861 381.498 374.6 383.815 379.643 384.916C379.659 384.916 379.659 384.916 379.675 384.916C380.315 385.061 380.987 385.192 381.66 385.293C381.884 385.322 382.044 385.525 382.012 385.728C381.964 385.916 381.804 386.046 381.596 386.046Z" fill="#B27409" fill-opacity="0.5"/>
<path d="M358.687 362.636C358.254 362.636 357.806 362.622 357.342 362.579C355.437 362.39 353.42 362.129 351.338 361.811C348.761 361.391 346.167 360.666 343.622 359.623C342.741 359.247 341.861 358.812 341.012 358.392C339.828 357.813 338.611 357.204 337.362 356.798C337.138 356.726 337.026 356.509 337.106 356.306C337.186 356.103 337.426 356.002 337.634 356.074C338.947 356.509 340.196 357.132 341.397 357.726C342.229 358.131 343.094 358.566 343.974 358.928C346.44 359.942 348.969 360.652 351.482 361.057C353.532 361.376 355.533 361.637 357.438 361.811C359.615 362.028 361.568 361.637 363.185 361.231C363.409 361.173 363.633 361.289 363.697 361.492C363.762 361.695 363.617 361.912 363.409 361.97C362.049 362.303 360.464 362.636 358.687 362.636Z" fill="#B27409" fill-opacity="0.5"/>
<path d="M362.785 351.946C362.641 351.946 362.513 351.873 362.433 351.757C359.135 347.006 357.198 342.515 356.333 337.619C355.533 333.113 354.508 329.579 352.971 326.145C352.891 325.943 352.987 325.725 353.195 325.653C353.42 325.566 353.66 325.667 353.74 325.856C355.293 329.332 356.349 332.925 357.15 337.503C357.998 342.283 359.903 346.687 363.137 351.352C363.265 351.525 363.201 351.772 363.009 351.873C362.945 351.917 362.865 351.946 362.785 351.946Z" fill="#B27409" fill-opacity="0.5"/>
<path d="M375.912 347.122C375.704 347.122 375.512 346.977 375.512 346.774C375.384 345.296 374.264 343.558 373.431 342.283C373.271 342.022 373.111 341.776 372.983 341.559C372.118 340.183 370.982 338.937 369.893 337.734C369.077 336.822 368.228 335.895 367.492 334.895C366.515 333.591 365.795 332.157 365.09 330.767C364.706 329.984 364.306 329.202 363.874 328.434C363.778 328.246 363.842 328.014 364.05 327.927C364.258 327.826 364.498 327.898 364.61 328.087C365.058 328.854 365.458 329.666 365.843 330.448C366.531 331.81 367.236 333.215 368.164 334.475C368.884 335.431 369.717 336.358 370.533 337.242C371.654 338.473 372.807 339.734 373.703 341.182C373.831 341.399 373.991 341.631 374.151 341.892C375.016 343.225 376.201 345.065 376.329 346.716C376.345 346.919 376.169 347.107 375.945 347.122C375.945 347.122 375.929 347.122 375.912 347.122Z" fill="#B27409" fill-opacity="0.5"/>
</svg>
