<svg width="190" height="190" viewBox="0 0 190 190" fill="none" xmlns="http://www.w3.org/2000/svg">
<path d="M57.3926 30.8004C56.7593 30.8004 56.1411 30.4837 55.7814 29.9061C55.5838 29.592 55.4926 29.2449 55.4926 28.9029C55.4926 28.2696 55.8093 27.6489 56.3869 27.2892C56.6149 27.1448 56.8581 27.008 57.0962 26.8762C58.0133 26.3721 59.171 26.7065 59.6751 27.6286C59.8322 27.9174 59.9082 28.2316 59.9082 28.5381C59.9082 29.2094 59.551 29.8605 58.9202 30.2076C58.7454 30.3038 58.5655 30.4052 58.3983 30.509C58.0842 30.7092 57.7371 30.8004 57.3926 30.8004Z" fill="#B27409"/>
<path d="M52.2878 41.529C51.2441 41.529 50.3954 40.6854 50.3878 39.6417C50.3878 39.6391 50.3878 39.6366 50.3878 39.6366C50.3828 38.8715 50.4208 38.1267 50.4993 37.4022C50.6133 36.3585 51.5608 35.6086 52.5944 35.7175C53.5697 35.8239 54.2892 36.6473 54.2892 37.6074C54.2892 37.6758 54.2866 37.7442 54.279 37.8126C54.2157 38.4029 54.1853 39.0033 54.1878 39.6239C54.1904 40.6727 53.3442 41.5239 52.298 41.5315C52.2929 41.529 52.2904 41.529 52.2878 41.529Z" fill="#B27409"/>
<path d="M53.1696 36.1304C52.9467 36.1304 52.7187 36.0899 52.4957 36.0088C51.7357 35.72 51.2671 34.998 51.2696 34.2279C51.2696 34.0075 51.3101 33.7795 51.3912 33.5591C51.6319 32.9258 51.9029 32.3279 52.2247 31.7452C52.7288 30.8256 53.8865 30.4887 54.8036 30.9954C55.4344 31.3399 55.7916 31.9935 55.7891 32.6648C55.7891 32.9739 55.7131 33.2855 55.5535 33.5743C55.3204 33.9999 55.1228 34.4407 54.9455 34.9068C54.6592 35.6618 53.9372 36.1304 53.1696 36.1304Z" fill="#B27409"/>
<path d="M54.2513 33.9367C53.8992 33.9367 53.5445 33.8404 53.2253 33.6352C52.6604 33.2704 52.3513 32.6599 52.3513 32.0342C52.3513 31.682 52.4501 31.3274 52.6528 31.0107C53.1392 30.2532 53.6433 29.6123 54.1905 29.0474C54.9201 28.295 56.1184 28.2772 56.8733 29.0018C57.6257 29.7288 57.6511 30.9271 56.9265 31.6846C56.5389 32.0899 56.1868 32.5408 55.8524 33.0652C55.4876 33.6302 54.8745 33.9367 54.2513 33.9367Z" fill="#B27409"/>
<path d="M52.4425 38.9653C52.3538 38.9653 52.2652 38.9603 52.1765 38.9476C51.1379 38.8007 50.4133 37.8405 50.5602 36.8019C50.6844 35.9101 50.882 35.0361 51.1505 34.1976C51.1505 34.1951 51.153 34.1925 51.153 34.19C51.4748 33.1919 52.5438 32.6396 53.542 32.9613C54.3476 33.2223 54.8618 33.9671 54.8618 34.7701C54.8618 34.9627 54.834 35.1577 54.7707 35.3503C54.6769 35.6416 54.5933 35.938 54.5224 36.242C54.4413 36.5941 54.3729 36.9539 54.3197 37.3288C54.3197 37.3288 54.3197 37.3313 54.3197 37.3339C54.188 38.2788 53.3748 38.9653 52.4425 38.9653Z" fill="#B27409"/>
<path d="M59.5815 29.7211C58.8037 29.7211 58.0741 29.2398 57.7929 28.4671C57.7169 28.2543 57.6789 28.0339 57.6815 27.8186C57.6815 27.0408 58.1628 26.3138 58.9355 26.0326L59.5815 27.8211L59.0824 25.9743C59.2293 25.9135 59.3763 25.8552 59.5283 25.8046C60.5264 25.4778 61.598 26.0275 61.9223 27.0256C61.9856 27.2207 62.016 27.4183 62.016 27.6134C62.016 28.4139 61.5043 29.1587 60.7012 29.4196C60.6733 29.4298 60.2528 29.597 60.2249 29.6071C60.0121 29.6856 59.7943 29.7211 59.5815 29.7211Z" fill="#B27409"/>
<path d="M65.3929 28.852C65.3726 28.852 65.3498 28.852 65.3296 28.852L64.98 28.8444C63.9312 28.8444 63.08 27.9932 63.08 26.9444C63.08 25.8956 63.9312 25.0444 64.98 25.0444C65.1244 25.0318 65.2358 25.0242 65.3549 25.0242C66.4037 25.0242 67.2929 25.8754 67.2929 26.9242C67.2929 27.441 67.0852 27.9476 66.7128 28.3048C66.3581 28.6468 65.8844 28.852 65.3929 28.852Z" fill="#B27409"/>
<path d="M55.6345 32.181C55.1481 32.181 54.6617 31.996 54.2893 31.6236C53.5977 30.9295 53.5521 29.8351 54.155 29.0903C54.2032 29.032 54.2513 28.9763 54.3045 28.9231C54.3146 28.913 54.3298 28.9003 54.3425 28.8851C54.383 28.8471 54.4261 28.8091 54.4717 28.7736C54.5198 28.7356 54.568 28.6976 54.606 28.6698C55.442 28.0846 56.6022 28.2518 57.2204 29.0599C57.7068 29.6958 57.7397 30.5394 57.3496 31.1879C57.2406 31.3678 57.0988 31.535 56.9265 31.6768C56.924 31.6794 56.924 31.6768 56.924 31.6794C56.9214 31.6819 56.9189 31.6844 56.9138 31.687C56.8581 31.7427 56.8302 31.763 56.7897 31.7883C56.4477 32.0518 56.0398 32.181 55.6345 32.181Z" fill="#B27409"/>
<path d="M62.6341 28.9687C61.6866 28.9687 60.7797 28.2898 60.648 27.3398C60.6353 27.2384 60.6277 27.1371 60.6277 27.0383C60.6277 26.1212 61.218 25.3384 62.1578 25.2067L62.5784 25.1611C63.6221 25.0648 64.6405 25.8198 64.7418 26.8559C64.7494 26.9294 64.752 27.0028 64.752 27.0712C64.752 28.0162 64.1313 28.8142 63.1712 28.9206C63.156 28.9206 62.9178 28.9434 62.9052 28.9459C62.8114 28.9611 62.7228 28.9687 62.6341 28.9687Z" fill="#B27409"/>
<path d="M81.991 60.7113H59.8877C59.2898 60.7113 58.7274 60.4301 58.3677 59.9513C53.4125 53.3393 50.5828 46.2916 50.3978 40.1077C50.3826 39.5833 50.5828 39.0792 50.9526 38.7068C51.3225 38.3369 51.8368 38.1469 52.351 38.152C60.521 38.3926 70.0717 43.2136 77.8946 51.0416C79.9365 53.0809 81.834 55.3229 83.5364 57.7093C83.9493 58.2894 84.005 59.0494 83.6808 59.6828C83.354 60.3136 82.7029 60.7113 81.991 60.7113ZM60.8529 56.9113H78.1252C77.1954 55.8017 76.2252 54.7377 75.2144 53.7294C68.8532 47.3657 61.0733 43.0692 54.3853 42.1344C55.0389 46.7577 57.3214 51.9941 60.8529 56.9113Z" fill="#B27409"/>
<path d="M108.016 60.7114H81.9888C81.3732 60.7114 80.7981 60.415 80.4409 59.9134C78.8652 57.7018 77.1071 55.6219 75.2121 53.7295C68.1441 46.659 59.3332 42.1446 52.2145 41.9495C51.2063 41.9216 50.3956 41.111 50.3677 40.1027C50.2385 35.492 51.5888 31.6363 54.2741 28.9535C56.8531 26.3746 60.4985 25.0142 64.8153 25.0142C73.1095 25.0142 82.8957 29.8452 90.9948 37.9392C92.4008 39.3478 93.7409 40.8551 95 42.446C96.2616 40.8551 97.6017 39.3427 99.0077 37.9392C107.107 29.8452 116.893 25.0142 125.187 25.0142C129.507 25.0142 133.152 26.3771 135.731 28.9535C138.409 31.6312 139.759 35.487 139.635 40.1002C139.607 41.1084 138.796 41.9191 137.788 41.947C130.664 42.1496 121.853 46.6615 114.793 53.727C112.893 55.6295 111.132 57.7094 109.562 59.9134C109.207 60.415 108.629 60.7114 108.016 60.7114ZM82.9591 56.9114H107.049C108.589 54.8315 110.289 52.8606 112.108 51.0416C119.348 43.7963 128.063 39.1299 135.797 38.2812C135.587 35.5148 134.647 33.2424 133.046 31.6388C131.196 29.7895 128.478 28.8116 125.19 28.8116C117.99 28.8116 108.987 33.3387 101.696 40.6246C99.8463 42.4739 98.1109 44.5234 96.5453 46.7096C95.8309 47.7052 94.1691 47.7052 93.4547 46.7096C91.8891 44.5259 90.1588 42.479 88.3069 40.6246C81.0185 33.3412 72.0151 28.8142 64.8153 28.8142C61.5271 28.8142 58.8088 29.792 56.9595 31.6414C55.3559 33.245 54.416 35.5199 54.2057 38.2812C61.9375 39.1248 70.6521 43.7912 77.8975 51.0416C79.7113 52.853 81.4112 54.8239 82.9591 56.9114Z" fill="#B27409"/>
<path d="M132.61 30.8053C132.258 30.8053 131.903 30.7065 131.584 30.5038L131.181 30.2632C131.176 30.2606 131.168 30.2556 131.161 30.253L131.077 30.2049V30.2024C130.241 29.6602 129.902 28.5278 130.391 27.6513C130.902 26.7393 131.987 26.377 132.901 26.8736L132.932 26.8913L133.213 27.0509C133.225 27.0585 133.241 27.0661 133.253 27.0737C133.296 27.099 133.339 27.1244 133.38 27.1497C134.072 27.4334 134.558 28.1149 134.558 28.9078C134.558 29.9566 133.707 30.8078 132.658 30.8078C132.643 30.8053 132.63 30.8053 132.61 30.8053Z" fill="#B27409"/>
<path d="M137.712 41.5289C137.707 41.5289 137.702 41.5289 137.694 41.5289C136.645 41.5187 135.804 40.6625 135.812 39.6162C135.817 38.9981 135.787 38.4002 135.721 37.8125C135.713 37.7441 135.711 37.6757 135.711 37.6073C135.711 36.6497 136.43 35.8238 137.405 35.7174C138.444 35.611 139.387 36.3558 139.501 37.4021C139.579 38.1342 139.622 38.8815 139.612 39.6517C139.602 40.6903 138.753 41.5289 137.712 41.5289Z" fill="#B27409"/>
<path d="M136.83 36.1304C136.06 36.1304 135.336 35.6592 135.049 34.8941C134.877 34.4356 134.675 33.9923 134.444 33.5667C134.287 33.2779 134.214 32.9688 134.214 32.6623C134.214 31.9884 134.573 31.3373 135.207 30.9903C136.129 30.4887 137.284 30.8307 137.783 31.7503C138.1 32.3329 138.378 32.9384 138.611 33.5692C138.692 33.7871 138.73 34.0125 138.73 34.2329C138.73 35.0031 138.257 35.7276 137.494 36.0139C137.276 36.0924 137.051 36.1304 136.83 36.1304Z" fill="#B27409"/>
<path d="M135.749 33.9415C135.12 33.9415 134.507 33.6299 134.145 33.0624C133.813 32.538 133.464 32.0921 133.081 31.6944C132.354 30.942 132.372 29.7412 133.124 29.0116C133.874 28.282 135.072 28.2947 135.807 29.0445C136.362 29.6095 136.866 30.258 137.355 31.0205C137.558 31.3372 137.651 31.6919 137.651 32.0389C137.651 32.6672 137.34 33.2803 136.772 33.6425C136.453 33.8477 136.101 33.9415 135.749 33.9415Z" fill="#B27409"/>
<path d="M137.56 38.9653C136.628 38.9653 135.817 38.2813 135.68 37.3313C135.627 36.9614 135.561 36.5966 135.475 36.242C135.404 35.9405 135.323 35.6441 135.227 35.3477C135.227 35.3477 135.224 35.3452 135.227 35.3426C134.908 34.342 135.46 33.2754 136.458 32.9562C137.461 32.637 138.525 33.1868 138.847 34.1849C139.07 34.879 139.247 35.6061 139.374 36.3484C139.465 36.5688 139.513 36.812 139.513 37.0653C139.513 38.1217 138.708 38.9096 137.596 38.9653C137.583 38.9653 137.57 38.9653 137.56 38.9653Z" fill="#B27409"/>
<path d="M130.383 29.7161C130.17 29.7161 129.95 29.6755 129.732 29.5919C129.719 29.5869 129.519 29.5058 129.507 29.4982C128.683 29.2322 128.101 28.4291 128.101 27.5982C128.101 27.4209 128.128 27.241 128.184 27.0662C128.508 26.0681 129.481 25.4803 130.477 25.8046C130.644 25.8578 130.806 25.9237 130.966 25.9895C131.716 26.3011 132.215 27.0611 132.217 27.8363C132.217 28.0567 132.177 28.2771 132.091 28.4899C131.789 29.2423 131.12 29.7161 130.383 29.7161Z" fill="#B27409"/>
<path d="M124.607 28.8468C124.116 28.8468 123.642 28.6568 123.287 28.3148C122.915 27.9576 122.707 27.4636 122.707 26.9468V26.9215C122.707 25.9208 123.482 25.0924 124.478 25.0266C124.579 25.019 124.919 25.0291 125.02 25.0392C125.03 25.0392 125.038 25.0392 125.048 25.0418C126.084 25.057 126.92 25.9006 126.92 26.9418C126.92 27.9855 126.079 28.8316 125.038 28.8418C125.035 28.8418 125.03 28.8418 125.03 28.8418C125.025 28.8418 125.025 28.8418 125.02 28.8418L124.673 28.8443C124.653 28.8468 124.627 28.8468 124.607 28.8468Z" fill="#B27409"/>
<path d="M134.477 32.2241C134.013 32.2241 133.547 32.0594 133.172 31.7579C132.972 31.5983 132.805 31.3956 132.683 31.1651C132.683 31.1651 132.683 31.1626 132.681 31.1626C132.658 31.117 132.635 31.0714 132.615 31.0258C132.61 31.0131 132.605 30.9979 132.6 30.9852C132.288 30.21 132.519 29.3107 133.185 28.7838C133.904 28.2138 134.928 28.2416 135.617 28.8496C135.842 29.0498 136.015 29.293 136.124 29.5615C136.547 30.3696 136.296 31.2842 135.579 31.8516C135.26 32.105 134.87 32.2241 134.477 32.2241Z" fill="#B27409"/>
<path d="M127.589 28.9888C127.503 28.9888 127.414 28.9838 127.325 28.9711L127.095 28.9483C127.082 28.9483 126.849 28.9255 126.836 28.923C125.864 28.8166 125.142 27.9932 125.142 27.0356C125.142 26.9672 125.144 26.8988 125.152 26.8279C125.263 25.7842 126.19 25.0292 127.244 25.1432L127.847 25.204C128.797 25.3358 129.484 26.149 129.486 27.0812C129.486 27.1699 129.481 27.2586 129.469 27.3472C129.337 28.3023 128.524 28.9888 127.589 28.9888Z" fill="#B27409"/>
<path d="M105.08 57.4712C104.031 57.4712 103.18 56.62 103.18 55.5712C103.18 51.0619 99.5093 47.3911 95 47.3911C90.4907 47.3911 86.8224 51.0593 86.8224 55.5712C86.8224 56.62 85.9712 57.4712 84.9224 57.4712C83.8736 57.4712 83.0224 56.62 83.0224 55.5712C83.0224 48.9668 88.3956 43.5911 95 43.5911C101.607 43.5911 106.98 48.9643 106.98 55.5712C106.98 56.62 106.131 57.4712 105.08 57.4712Z" fill="#B27409"/>
<path d="M111.553 88.4894H78.4472C77.3984 88.4894 76.5472 87.6382 76.5472 86.5894V58.8114C76.5472 57.7626 77.3984 56.9114 78.4472 56.9114H111.553C112.602 56.9114 113.453 57.7626 113.453 58.8114V86.5894C113.453 87.6382 112.602 88.4894 111.553 88.4894ZM80.3472 84.6894H109.653V60.7114H80.3472V84.6894Z" fill="#B27409"/>
<path d="M161.989 88.4894H28.0111C26.9623 88.4894 26.1111 87.6382 26.1111 86.5894V58.8114C26.1111 57.7626 26.9623 56.9114 28.0111 56.9114H161.992C163.04 56.9114 163.891 57.7626 163.891 58.8114V86.5894C163.889 87.6382 163.038 88.4894 161.989 88.4894ZM29.9111 84.6894H160.091V60.7114H29.9111V84.6894Z" fill="#B27409"/>
<path d="M130.107 60.7113H108.011C107.299 60.7113 106.648 60.3136 106.321 59.6802C105.997 59.0469 106.053 58.2869 106.466 57.7068C108.168 55.3204 110.066 53.0784 112.108 51.039C119.928 43.211 129.476 38.3901 137.649 38.1494C138.176 38.1469 138.68 38.3369 139.047 38.7042C139.417 39.0741 139.62 39.5808 139.602 40.1052C139.417 46.2941 136.585 53.3444 131.627 59.9513C131.27 60.4301 130.705 60.7113 130.107 60.7113ZM111.882 56.9113H129.147C132.681 51.9992 134.963 46.7602 135.619 42.1344C128.931 43.0717 121.152 47.3657 114.795 53.7294C113.785 54.7352 112.809 55.8017 111.882 56.9113Z" fill="#B27409"/>
<path d="M149.064 164.989H40.9361C39.8873 164.989 39.0361 164.137 39.0361 163.089V86.5895C39.0361 85.5407 39.8873 84.6895 40.9361 84.6895H149.064C150.113 84.6895 150.964 85.5407 150.964 86.5895V163.089C150.964 164.137 150.113 164.989 149.064 164.989ZM42.8361 161.189H147.164V88.4895H42.8361V161.189Z" fill="#B27409"/>
<path d="M150.016 115.1C149.53 115.1 149.044 114.915 148.674 114.542L147.721 113.59C147.349 113.217 147.164 112.728 147.164 112.242C147.164 111.756 147.351 111.267 147.724 110.894C148.466 110.154 149.672 110.157 150.412 110.902L151.362 111.854C151.559 112.052 151.706 112.282 151.797 112.531C151.797 112.531 151.8 112.531 151.8 112.536C151.8 112.536 151.8 112.538 151.802 112.541C151.802 112.543 151.802 112.543 151.802 112.546C151.802 112.548 151.802 112.551 151.805 112.551C151.805 112.554 151.805 112.554 151.807 112.556V112.559V112.561C151.807 112.564 151.81 112.564 151.807 112.566V112.569V112.571V112.574C151.807 112.574 151.81 112.576 151.807 112.579C151.807 112.581 151.807 112.584 151.81 112.584C151.81 112.584 151.81 112.584 151.81 112.589C151.81 112.589 151.81 112.592 151.81 112.594V112.597V112.599V112.602C151.81 112.602 151.81 112.604 151.81 112.607C151.81 112.609 151.81 112.609 151.81 112.612C151.81 112.614 151.81 112.614 151.81 112.617V112.619V112.624C151.81 112.624 151.812 112.627 151.812 112.63C151.812 112.63 151.812 112.63 151.812 112.635C151.812 112.635 151.815 112.637 151.812 112.64V112.642V112.645C151.812 112.647 151.812 112.647 151.815 112.652C151.815 112.652 151.815 112.655 151.815 112.657V112.66C151.818 112.665 151.818 112.665 151.818 112.665C151.818 112.665 151.818 112.668 151.818 112.67C151.818 112.67 151.818 112.673 151.818 112.675V112.678C151.818 112.68 151.818 112.68 151.818 112.683C151.818 112.683 151.818 112.685 151.818 112.688C151.818 112.688 151.818 112.688 151.82 112.693C151.82 112.693 151.82 112.695 151.82 112.698C151.82 112.698 151.82 112.7 151.82 112.703C151.82 112.703 151.82 112.703 151.82 112.708V112.711V112.713C151.82 112.713 151.82 112.716 151.82 112.718C151.82 112.718 151.82 112.721 151.82 112.723C151.82 112.723 151.82 112.726 151.82 112.728C151.82 112.731 151.82 112.731 151.82 112.733C151.82 112.733 151.82 112.736 151.82 112.738V112.741C151.82 112.741 151.82 112.738 151.82 112.749C151.82 112.749 151.82 112.751 151.82 112.754V112.756C151.82 112.756 151.82 112.756 151.82 112.761C151.82 112.764 151.823 112.764 151.82 112.766V112.771C151.82 112.774 151.82 112.774 151.82 112.776C151.823 112.779 151.82 112.779 151.82 112.782V112.784V112.787C151.82 112.789 151.82 112.789 151.82 112.792V112.794C151.82 112.797 151.82 112.799 151.82 112.799C151.82 112.802 151.82 112.802 151.82 112.804V112.807C151.82 112.809 151.82 112.809 151.82 112.812C151.82 112.812 151.823 112.817 151.82 112.817C151.82 112.817 151.82 112.82 151.82 112.822V112.825C151.82 112.825 151.82 112.827 151.82 112.83V112.832C151.82 112.835 151.82 112.835 151.82 112.837V112.84C151.82 112.842 151.82 112.842 151.82 112.845V112.847C151.82 112.847 151.82 112.85 151.82 112.852C151.82 112.852 151.82 112.855 151.82 112.858C151.823 112.863 151.82 112.863 151.82 112.863C151.82 112.863 151.82 112.865 151.82 112.868C151.82 112.87 151.82 112.87 151.82 112.873V112.875C151.82 112.875 151.82 112.875 151.82 112.878C151.896 113.445 151.716 114.041 151.28 114.476C151.03 114.727 150.728 114.892 150.409 114.973H150.406C150.401 114.973 150.401 114.973 150.401 114.973C150.401 114.973 150.399 114.973 150.396 114.973C150.394 114.975 150.391 114.973 150.391 114.973C150.391 114.973 150.389 114.973 150.386 114.973C150.384 114.973 150.384 114.973 150.384 114.973C150.384 114.973 150.379 114.973 150.371 114.975C150.371 114.975 150.368 114.975 150.366 114.975C150.366 114.975 150.363 114.975 150.361 114.975C150.361 114.975 150.358 114.975 150.356 114.975C150.356 114.975 150.353 114.975 150.351 114.975C150.348 114.975 150.346 114.975 150.341 114.978C150.341 114.978 150.338 114.978 150.336 114.978C150.33 114.978 150.33 114.978 150.33 114.978C150.33 114.978 150.328 114.978 150.325 114.978C150.27 115.087 150.143 115.1 150.016 115.1Z" fill="#B27409"/>
<path d="M154.143 115.756C151.886 115.756 149.664 114.988 147.888 113.59C147.43 113.23 147.164 112.68 147.164 112.098V86.5895C147.164 85.5407 148.015 84.6895 149.064 84.6895H151.65C152.154 84.6895 152.638 84.8896 152.993 85.2468L163.772 96.0185C166.144 98.3948 170.275 98.3923 172.644 96.0185C173.386 95.2763 174.59 95.2788 175.332 96.0185C176.074 96.7608 176.074 97.9641 175.332 98.7064L161.214 112.827C159.329 114.715 156.816 115.756 154.143 115.756ZM150.964 111.097C153.353 112.488 156.57 112.103 158.528 110.139L167.073 101.594C164.811 101.341 162.718 100.335 161.087 98.7013L150.964 88.5857V111.097Z" fill="#B27409"/>
<path d="M105.344 164.989H84.6564C83.6076 164.989 82.7564 164.137 82.7564 163.089V86.5895C82.7564 85.5407 83.6076 84.6895 84.6564 84.6895H105.344C106.392 84.6895 107.244 85.5407 107.244 86.5895V163.089C107.244 164.137 106.392 164.989 105.344 164.989ZM86.5564 161.189H103.444V88.4895H86.5564V161.189Z" fill="#B27409"/>
<path d="M35.8619 115.758C33.1892 115.758 30.6761 114.714 28.7863 112.822L14.6756 98.7114C14.6731 98.7089 14.668 98.7038 14.6655 98.7013C13.9257 97.959 13.9257 96.7557 14.6655 96.0134C15.4077 95.2737 16.6111 95.2737 17.3533 96.0134C19.7245 98.3871 23.8564 98.3871 26.2276 96.0134L37.0044 85.2417C37.3616 84.8845 37.8455 84.6843 38.3471 84.6843H40.9336C41.9824 84.6843 42.8336 85.5355 42.8336 86.5843V112.095C42.8336 112.678 42.5676 113.227 42.1091 113.587C40.3357 114.991 38.1165 115.758 35.8619 115.758ZM22.9292 101.594L31.4741 110.139C33.4324 112.103 36.6472 112.485 39.0361 111.099V88.5882L28.9155 98.7038C27.2865 100.335 25.1915 101.341 22.9292 101.594Z" fill="#B27409"/>
</svg>
