<svg width="325" height="306" viewBox="0 0 325 306" fill="none" xmlns="http://www.w3.org/2000/svg">
<path d="M99.1102 168.814C98.7866 168.814 98.5184 168.889 98.3138 169.039C98.1056 169.194 98.0031 169.387 98.0031 169.611V176.173C98.0031 176.404 98.1056 176.596 98.3138 176.746C98.5184 176.902 98.7866 176.976 99.1102 176.976C99.4379 176.976 99.7052 176.902 99.9107 176.746C100.119 176.596 100.221 176.404 100.221 176.173V169.611C100.221 169.387 100.119 169.194 99.9107 169.039C99.7052 168.889 99.4379 168.814 99.1102 168.814Z" fill="#B27409"/>
<path d="M107.372 168.814C107.048 168.814 106.781 168.889 106.576 169.039C106.367 169.194 106.265 169.387 106.265 169.611V176.173C106.265 176.404 106.367 176.596 106.576 176.746C106.781 176.902 107.048 176.976 107.372 176.976C107.7 176.976 107.968 176.902 108.172 176.746C108.381 176.596 108.483 176.404 108.483 176.173V169.611C108.483 169.387 108.381 169.194 108.172 169.039C107.968 168.889 107.7 168.814 107.372 168.814Z" fill="#B27409"/>
<path d="M93.5155 140.144C92.7666 138.414 92.1798 136.666 91.7847 134.899H84.2139V140.144H93.5155Z" fill="#B27409"/>
<path d="M91.3293 126.333H84.2139V131.712H91.2897C91.114 129.902 91.1276 128.108 91.3293 126.333Z" fill="#B27409"/>
<path d="M82.5865 176.976C82.9142 176.976 83.182 176.902 83.387 176.746C83.5948 176.596 83.6978 176.404 83.6978 176.173V169.611C83.6978 169.387 83.5948 169.194 83.387 169.039C83.182 168.889 82.9142 168.814 82.5865 168.814C82.2629 168.814 81.9947 168.889 81.7897 169.039C81.5818 169.194 81.4789 169.387 81.4789 169.611V176.173C81.4789 176.404 81.5818 176.596 81.7897 176.746C81.9947 176.902 82.2629 176.976 82.5865 176.976Z" fill="#B27409"/>
<path d="M165.199 168.814C164.875 168.814 164.607 168.889 164.402 169.039C164.194 169.194 164.091 169.387 164.091 169.611V176.173C164.091 176.404 164.194 176.596 164.402 176.746C164.607 176.902 164.874 176.976 165.199 176.976C165.526 176.976 165.794 176.902 165.999 176.746C166.207 176.596 166.31 176.404 166.31 176.173V169.611C166.31 169.387 166.207 169.194 165.999 169.039C165.794 168.889 165.526 168.814 165.199 168.814Z" fill="#B27409"/>
<path d="M173.461 168.814C173.137 168.814 172.869 168.889 172.664 169.039C172.456 169.194 172.353 169.387 172.353 169.611V176.173C172.353 176.404 172.456 176.596 172.664 176.746C172.869 176.902 173.137 176.976 173.461 176.976C173.788 176.976 174.056 176.902 174.261 176.746C174.469 176.596 174.572 176.404 174.572 176.173V169.611C174.572 169.387 174.469 169.194 174.261 169.039C174.056 168.889 173.788 168.814 173.461 168.814Z" fill="#B27409"/>
<path d="M92.6236 120.493H88.4423C86.6107 120.493 85.0854 121.609 84.4994 123.145H91.8661C92.1075 122.18 92.3435 121.254 92.6236 120.493Z" fill="#B27409"/>
<path d="M90.8483 168.814C90.5247 168.814 90.2565 168.889 90.052 169.039C89.8437 169.194 89.7412 169.387 89.7412 169.611V176.173C89.7412 176.404 89.8437 176.596 90.052 176.746C90.2565 176.902 90.5247 176.976 90.8483 176.976C91.176 176.976 91.4434 176.902 91.6488 176.746C91.8575 176.596 91.9596 176.404 91.9596 176.173V169.611C91.9596 169.387 91.8575 169.194 91.6488 169.039C91.4434 168.889 91.176 168.814 90.8483 168.814Z" fill="#B27409"/>
<path d="M115.839 123.145C115.254 121.609 113.73 120.493 111.899 120.493H108.459C108.739 121.259 108.975 122.18 109.217 123.145H115.839Z" fill="#B27409"/>
<path d="M132.154 176.976C132.482 176.976 132.75 176.902 132.955 176.746C133.163 176.596 133.266 176.404 133.266 176.173V169.611C133.266 169.387 133.163 169.194 132.955 169.039C132.75 168.889 132.483 168.814 132.154 168.814C131.831 168.814 131.563 168.889 131.358 169.039C131.15 169.194 131.047 169.387 131.047 169.611V176.173C131.047 176.404 131.15 176.596 131.358 176.746C131.563 176.902 131.831 176.976 132.154 176.976Z" fill="#B27409"/>
<path d="M140.416 176.976C140.744 176.976 141.011 176.902 141.217 176.746C141.425 176.596 141.527 176.404 141.527 176.173V169.611C141.527 169.387 141.425 169.194 141.217 169.039C141.011 168.889 140.744 168.814 140.416 168.814C140.093 168.814 139.824 168.889 139.62 169.039C139.412 169.194 139.309 169.387 139.309 169.611V176.173C139.309 176.404 139.412 176.596 139.62 176.746C139.824 176.902 140.093 176.976 140.416 176.976Z" fill="#B27409"/>
<path d="M94.7834 133.056C95.1888 135.442 96.0305 137.817 97.167 140.144H103.915C105.051 137.817 105.893 135.442 106.298 133.053C106.755 130.342 106.735 127.64 106.236 125.019C105.868 123.097 105.326 121.64 104.832 120.493H96.2553C95.7586 121.629 95.2139 123.079 94.8461 125.019C94.347 127.64 94.3271 130.342 94.7834 133.056Z" fill="#B27409"/>
<path d="M88.4423 146.124H111.899C113.783 146.124 115.326 144.938 115.87 143.332H84.4694C85.0135 144.938 86.5583 146.124 88.4423 146.124Z" fill="#B27409"/>
<path d="M148.678 176.976C149.006 176.976 149.273 176.902 149.479 176.746C149.687 176.596 149.789 176.404 149.789 176.173V169.611C149.789 169.387 149.687 169.194 149.479 169.039C149.273 168.889 149.006 168.814 148.678 168.814C148.355 168.814 148.086 168.889 147.882 169.039C147.674 169.194 147.571 169.387 147.571 169.611V176.173C147.571 176.404 147.674 176.596 147.882 176.746C148.086 176.902 148.355 176.976 148.678 176.976Z" fill="#B27409"/>
<path d="M181.722 168.814C181.399 168.814 181.131 168.889 180.926 169.039C180.718 169.194 180.615 169.387 180.615 169.611V176.173C180.615 176.404 180.718 176.596 180.926 176.746C181.131 176.902 181.399 176.976 181.722 176.976C182.05 176.976 182.318 176.902 182.523 176.746C182.731 176.596 182.834 176.404 182.834 176.173V169.611C182.834 169.387 182.731 169.194 182.523 169.039C182.318 168.889 182.05 168.814 181.722 168.814Z" fill="#B27409"/>
<path d="M109.792 131.712H116.124V126.333H109.752C109.954 128.109 109.967 129.903 109.792 131.712Z" fill="#B27409"/>
<path d="M107.566 140.144H116.124V134.899H109.297C108.902 136.667 108.315 138.415 107.566 140.144Z" fill="#B27409"/>
<path d="M123.893 176.976C124.22 176.976 124.488 176.902 124.693 176.746C124.901 176.596 125.004 176.404 125.004 176.173V169.611C125.004 169.387 124.901 169.194 124.693 169.039C124.488 168.889 124.22 168.814 123.893 168.814C123.569 168.814 123.301 168.889 123.096 169.039C122.888 169.194 122.785 169.387 122.785 169.611V176.173C122.785 176.404 122.888 176.596 123.096 176.746C123.301 176.902 123.569 176.976 123.893 176.976Z" fill="#B27409"/>
<path d="M223.029 176.976C223.356 176.976 223.624 176.902 223.829 176.746C224.037 176.596 224.14 176.404 224.14 176.173V169.611C224.14 169.387 224.037 169.194 223.829 169.039C223.624 168.889 223.356 168.814 223.029 168.814C222.705 168.814 222.437 168.889 222.232 169.039C222.024 169.194 221.921 169.387 221.921 169.611V176.173C221.921 176.404 222.024 176.596 222.232 176.746C222.437 176.902 222.705 176.976 223.029 176.976Z" fill="#B27409"/>
<path d="M206.505 176.976C206.832 176.976 207.1 176.902 207.305 176.746C207.513 176.596 207.615 176.404 207.615 176.173V169.611C207.615 169.387 207.513 169.194 207.305 169.039C207.1 168.889 206.832 168.814 206.505 168.814C206.181 168.814 205.913 168.889 205.708 169.039C205.5 169.194 205.397 169.387 205.397 169.611V176.173C205.397 176.404 205.5 176.596 205.708 176.746C205.913 176.902 206.181 176.976 206.505 176.976Z" fill="#B27409"/>
<path d="M214.767 176.976C215.094 176.976 215.362 176.902 215.567 176.746C215.775 176.596 215.878 176.404 215.878 176.173V169.611C215.878 169.387 215.775 169.194 215.567 169.039C215.362 168.889 215.094 168.814 214.767 168.814C214.443 168.814 214.175 168.889 213.97 169.039C213.762 169.194 213.659 169.387 213.659 169.611V176.173C213.659 176.404 213.762 176.596 213.97 176.746C214.175 176.902 214.443 176.976 214.767 176.976Z" fill="#B27409"/>
<path d="M236.84 191.169C236.231 192.752 235.622 194.333 235.003 195.943C236.002 195.943 236.947 195.943 237.95 195.943C237.593 194.332 237.244 192.754 236.894 191.176C236.876 191.174 236.858 191.172 236.84 191.169Z" fill="#B27409"/>
<path d="M231.29 176.976C231.618 176.976 231.886 176.902 232.091 176.746C232.299 176.596 232.402 176.404 232.402 176.173V169.611C232.402 169.387 232.299 169.194 232.091 169.039C231.886 168.889 231.618 168.814 231.29 168.814C230.967 168.814 230.698 168.889 230.493 169.039C230.286 169.194 230.183 169.387 230.183 169.611V176.173C230.183 176.404 230.286 176.596 230.493 176.746C230.698 176.902 230.967 176.976 231.29 176.976Z" fill="#B27409"/>
<path d="M189.984 168.814C189.661 168.814 189.392 168.889 189.188 169.039C188.98 169.194 188.877 169.387 188.877 169.611V176.173C188.877 176.404 188.98 176.596 189.188 176.746C189.392 176.902 189.661 176.976 189.984 176.976C190.312 176.976 190.579 176.902 190.785 176.746C190.993 176.596 191.095 176.404 191.095 176.173V169.611C191.095 169.387 190.993 169.194 190.785 169.039C190.579 168.889 190.312 168.814 189.984 168.814Z" fill="#B27409"/>
<path d="M248.721 89.6143H76.276C67.2934 89.6143 59.9836 96.4966 59.9836 104.957V201.043C59.9836 209.504 67.2934 216.386 76.276 216.386H248.721C257.707 216.386 265.016 209.504 265.016 201.043V104.957C265.016 96.4966 257.707 89.6143 248.721 89.6143ZM150.666 191.63C152.068 191.63 153.205 192.701 153.205 194.02C153.205 195.34 152.068 196.411 150.666 196.411H81.8765C80.4747 196.411 79.3374 195.34 79.3374 194.02C79.3374 192.701 80.4747 191.63 81.8765 191.63H150.666ZM120.517 176.173V169.611C120.517 169.238 120.61 168.902 120.795 168.609C120.98 168.317 121.228 168.067 121.539 167.855C121.849 167.644 122.21 167.488 122.616 167.376C123.023 167.27 123.45 167.215 123.893 167.215C124.339 167.215 124.762 167.27 125.172 167.376C125.579 167.488 125.936 167.644 126.247 167.855C126.561 168.067 126.806 168.317 126.994 168.609C127.176 168.902 127.268 169.237 127.268 169.611V176.173C127.268 176.553 127.176 176.889 126.994 177.181C126.806 177.474 126.56 177.723 126.247 177.935C125.936 178.14 125.579 178.302 125.172 178.415C124.762 178.52 124.339 178.576 123.893 178.576C123.45 178.576 123.023 178.52 122.616 178.415C122.21 178.302 121.849 178.14 121.539 177.935C121.228 177.723 120.98 177.474 120.795 177.181C120.61 176.889 120.517 176.553 120.517 176.173ZM128.779 176.173V169.611C128.779 169.238 128.872 168.902 129.057 168.609C129.242 168.317 129.49 168.067 129.801 167.855C130.112 167.644 130.472 167.488 130.878 167.376C131.285 167.27 131.712 167.215 132.154 167.215C132.601 167.215 133.024 167.27 133.434 167.376C133.84 167.488 134.198 167.644 134.509 167.855C134.823 168.067 135.067 168.317 135.255 168.609C135.438 168.902 135.531 169.237 135.531 169.611V176.173C135.531 176.553 135.438 176.889 135.255 177.181C135.067 177.474 134.823 177.723 134.509 177.935C134.198 178.14 133.84 178.302 133.434 178.415C133.024 178.52 132.601 178.576 132.154 178.576C131.712 178.576 131.285 178.52 130.878 178.415C130.472 178.302 130.112 178.14 129.801 177.935C129.49 177.723 129.242 177.474 129.057 177.181C128.872 176.889 128.779 176.553 128.779 176.173ZM137.041 176.173V169.611C137.041 169.238 137.134 168.902 137.319 168.609C137.504 168.317 137.752 168.067 138.063 167.855C138.374 167.644 138.734 167.488 139.141 167.376C139.547 167.27 139.974 167.215 140.416 167.215C140.863 167.215 141.287 167.27 141.696 167.376C142.103 167.488 142.46 167.644 142.771 167.855C143.085 168.067 143.329 168.317 143.517 168.609C143.7 168.902 143.792 169.237 143.792 169.611V176.173C143.792 176.553 143.7 176.889 143.517 177.181C143.329 177.474 143.085 177.723 142.771 177.935C142.46 178.14 142.103 178.302 141.696 178.415C141.287 178.52 140.863 178.576 140.416 178.576C139.974 178.576 139.547 178.52 139.141 178.415C138.734 178.302 138.374 178.14 138.063 177.935C137.752 177.723 137.504 177.474 137.319 177.181C137.134 176.889 137.041 176.553 137.041 176.173ZM145.303 176.173V169.611C145.303 169.238 145.396 168.902 145.58 168.609C145.766 168.317 146.014 168.067 146.324 167.855C146.635 167.644 146.996 167.488 147.402 167.376C147.809 167.27 148.235 167.215 148.678 167.215C149.125 167.215 149.548 167.27 149.958 167.376C150.365 167.488 150.722 167.644 151.032 167.855C151.346 168.067 151.591 168.317 151.78 168.609C151.961 168.902 152.054 169.237 152.054 169.611V176.173C152.054 176.553 151.961 176.889 151.78 177.181C151.591 177.474 151.346 177.723 151.032 177.935C150.722 178.14 150.365 178.302 149.958 178.415C149.548 178.52 149.125 178.576 148.678 178.576C148.235 178.576 147.809 178.52 147.402 178.415C146.996 178.302 146.635 178.14 146.324 177.935C146.014 177.723 145.766 177.474 145.58 177.181C145.396 176.889 145.303 176.553 145.303 176.173ZM87.4732 176.173V169.611C87.4732 169.238 87.5658 168.902 87.751 168.609C87.9361 168.317 88.184 168.067 88.4948 167.855C88.8056 167.644 89.1659 167.488 89.5726 167.376C89.9792 167.27 90.4057 167.215 90.8484 167.215C91.2947 167.215 91.7179 167.27 92.1282 167.376C92.5349 167.488 92.8919 167.644 93.2027 167.855C93.5168 168.067 93.7614 168.317 93.9495 168.609C94.1317 168.902 94.2243 169.237 94.2243 169.611V176.173C94.2243 176.553 94.1317 176.889 93.9495 177.181C93.7614 177.474 93.5168 177.723 93.2027 177.935C92.8919 178.14 92.5349 178.302 92.1282 178.415C91.7179 178.52 91.2947 178.576 90.8484 178.576C90.4057 178.576 89.9792 178.52 89.5726 178.415C89.1659 178.302 88.8056 178.14 88.4948 177.935C88.184 177.723 87.9361 177.474 87.751 177.181C87.5658 176.889 87.4732 176.553 87.4732 176.173ZM95.7351 176.173V169.611C95.7351 169.238 95.8276 168.902 96.0123 168.609C96.1979 168.317 96.4459 168.067 96.7566 167.855C97.0673 167.644 97.4277 167.488 97.8344 167.376C98.2406 167.27 98.6671 167.215 99.1101 167.215C99.5569 167.215 99.98 167.27 100.39 167.376C100.797 167.488 101.154 167.644 101.464 167.855C101.779 168.067 102.023 168.317 102.212 168.609C102.393 168.902 102.486 169.237 102.486 169.611V176.173C102.486 176.553 102.393 176.889 102.212 177.181C102.023 177.474 101.779 177.723 101.464 177.935C101.154 178.14 100.797 178.302 100.39 178.415C99.98 178.52 99.5569 178.576 99.1101 178.576C98.6671 178.576 98.2406 178.52 97.8344 178.415C97.4277 178.302 97.0674 178.14 96.7566 177.935C96.4458 177.723 96.1979 177.474 96.0123 177.181C95.8277 176.889 95.7351 176.553 95.7351 176.173ZM103.997 176.173V169.611C103.997 169.238 104.09 168.902 104.274 168.609C104.46 168.317 104.708 168.067 105.019 167.855C105.329 167.644 105.689 167.488 106.096 167.376C106.503 167.27 106.929 167.215 107.372 167.215C107.819 167.215 108.242 167.27 108.652 167.376C109.059 167.488 109.415 167.644 109.726 167.855C110.04 168.067 110.285 168.317 110.474 168.609C110.655 168.902 110.748 169.237 110.748 169.611V176.173C110.748 176.553 110.655 176.889 110.474 177.181C110.285 177.474 110.04 177.723 109.726 177.935C109.415 178.14 109.059 178.302 108.652 178.415C108.242 178.52 107.819 178.576 107.372 178.576C106.929 178.576 106.503 178.52 106.096 178.415C105.689 178.302 105.329 178.14 105.019 177.935C104.708 177.723 104.46 177.474 104.274 177.181C104.09 176.889 103.997 176.553 103.997 176.173ZM119.509 142.146C119.509 146.096 116.094 149.311 111.899 149.311H88.4423C84.2435 149.311 80.8284 146.096 80.8284 142.146V124.471C80.8284 120.521 84.2435 117.306 88.4423 117.306H111.899C116.094 117.306 119.509 120.521 119.509 124.471V142.146ZM81.3103 167.376C81.7173 167.27 82.1438 167.215 82.5864 167.215C83.0328 167.215 83.456 167.27 83.8663 167.376C84.2726 167.488 84.63 167.644 84.9408 167.856C85.2549 168.067 85.4995 168.317 85.6876 168.609C85.8698 168.902 85.9628 169.238 85.9628 169.611V176.173C85.9628 176.553 85.8698 176.889 85.6876 177.182C85.4995 177.474 85.2549 177.724 84.9408 177.935C84.63 178.14 84.2726 178.303 83.8663 178.415C83.456 178.52 83.0328 178.576 82.5864 178.576C82.1438 178.576 81.7173 178.52 81.3103 178.415C80.904 178.303 80.5437 178.14 80.2329 177.935C79.9221 177.724 79.6738 177.474 79.4891 177.182C79.3044 176.889 79.2113 176.553 79.2113 176.173V169.611C79.2113 169.238 79.3043 168.902 79.4891 168.609C79.6738 168.317 79.9221 168.067 80.2329 167.856C80.5437 167.644 80.904 167.488 81.3103 167.376ZM161.823 176.173V169.611C161.823 169.238 161.916 168.902 162.101 168.609C162.286 168.317 162.534 168.067 162.845 167.855C163.155 167.644 163.516 167.488 163.923 167.376C164.329 167.27 164.756 167.215 165.199 167.215C165.645 167.215 166.069 167.27 166.479 167.376C166.885 167.488 167.242 167.644 167.553 167.855C167.867 168.067 168.112 168.317 168.3 168.609C168.482 168.902 168.574 169.237 168.574 169.611V176.173C168.574 176.553 168.482 176.889 168.3 177.181C168.112 177.474 167.867 177.723 167.553 177.935C167.242 178.14 166.885 178.302 166.479 178.415C166.069 178.52 165.645 178.576 165.199 178.576C164.756 178.576 164.329 178.52 163.923 178.415C163.516 178.302 163.155 178.14 162.845 177.935C162.534 177.723 162.286 177.474 162.101 177.181C161.916 176.889 161.823 176.553 161.823 176.173ZM170.085 176.173V169.611C170.085 169.238 170.177 168.902 170.363 168.609C170.548 168.317 170.796 168.067 171.106 167.855C171.417 167.644 171.778 167.488 172.184 167.376C172.591 167.27 173.018 167.215 173.461 167.215C173.907 167.215 174.33 167.27 174.74 167.376C175.147 167.488 175.504 167.644 175.815 167.855C176.128 168.067 176.373 168.317 176.562 168.609C176.744 168.902 176.836 169.237 176.836 169.611V176.173C176.836 176.553 176.744 176.889 176.562 177.181C176.373 177.474 176.128 177.723 175.815 177.935C175.504 178.14 175.147 178.302 174.74 178.415C174.33 178.52 173.907 178.576 173.461 178.576C173.018 178.576 172.591 178.52 172.184 178.415C171.778 178.302 171.417 178.14 171.106 177.935C170.796 177.723 170.548 177.474 170.363 177.181C170.177 176.889 170.085 176.553 170.085 176.173ZM178.347 176.173V169.611C178.347 169.238 178.44 168.902 178.625 168.609C178.81 168.317 179.058 168.067 179.369 167.855C179.68 167.644 180.04 167.488 180.446 167.376C180.853 167.27 181.28 167.215 181.722 167.215C182.169 167.215 182.592 167.27 183.002 167.376C183.408 167.488 183.766 167.644 184.077 167.855C184.391 168.067 184.635 168.317 184.823 168.609C185.006 168.902 185.099 169.237 185.099 169.611V176.173C185.099 176.553 185.006 176.889 184.823 177.181C184.635 177.474 184.391 177.723 184.077 177.935C183.766 178.14 183.408 178.302 183.002 178.415C182.592 178.52 182.169 178.576 181.722 178.576C181.28 178.576 180.853 178.52 180.446 178.415C180.04 178.302 179.68 178.14 179.369 177.935C179.058 177.723 178.81 177.474 178.625 177.181C178.44 176.889 178.347 176.553 178.347 176.173ZM186.609 176.173V169.611C186.609 169.238 186.702 168.902 186.887 168.609C187.072 168.317 187.32 168.067 187.631 167.855C187.941 167.644 188.302 167.488 188.708 167.376C189.115 167.27 189.542 167.215 189.984 167.215C190.431 167.215 190.855 167.27 191.264 167.376C191.671 167.488 192.028 167.644 192.339 167.855C192.653 168.067 192.897 168.317 193.085 168.609C193.268 168.902 193.36 169.237 193.36 169.611V176.173C193.36 176.553 193.268 176.889 193.085 177.181C192.897 177.474 192.653 177.723 192.339 177.935C192.028 178.14 191.671 178.302 191.264 178.415C190.855 178.52 190.431 178.576 189.984 178.576C189.542 178.576 189.115 178.52 188.708 178.415C188.302 178.302 187.941 178.14 187.631 177.935C187.32 177.723 187.072 177.474 186.887 177.181C186.702 176.889 186.609 176.553 186.609 176.173ZM204.419 187.617C205.342 187.617 205.975 188.102 206.147 188.956C206.623 191.317 207.093 193.68 207.565 196.043C207.582 196.125 207.603 196.206 207.674 196.304C208.89 193.411 210.106 190.519 211.321 187.63C212.556 187.63 213.777 187.63 215.03 187.63C214.962 187.789 214.907 187.93 214.845 188.069C213.032 192.143 211.217 196.217 209.409 200.293C209.339 200.448 209.257 200.507 209.072 200.506C207.976 200.497 206.88 200.498 205.785 200.504C205.619 200.506 205.55 200.467 205.505 200.306C204.59 196.951 203.659 193.6 202.752 190.243C202.589 189.642 202.269 189.225 201.658 188.969C200.653 188.548 199.609 188.255 198.541 188.02C198.494 188.01 198.449 187.993 198.403 187.979C198.403 187.948 198.403 187.918 198.403 187.886C198.436 187.634 198.606 187.611 198.842 187.612C200.7 187.621 202.56 187.617 204.419 187.617ZM203.129 176.173V169.611C203.129 169.238 203.222 168.902 203.407 168.609C203.592 168.317 203.84 168.067 204.151 167.855C204.461 167.644 204.822 167.488 205.229 167.376C205.635 167.27 206.062 167.215 206.505 167.215C206.951 167.215 207.375 167.27 207.784 167.376C208.191 167.488 208.548 167.644 208.858 167.855C209.173 168.067 209.418 168.317 209.606 168.609C209.787 168.902 209.88 169.237 209.88 169.611V176.173C209.88 176.553 209.788 176.889 209.606 177.181C209.418 177.474 209.173 177.723 208.858 177.935C208.548 178.14 208.191 178.302 207.784 178.415C207.374 178.52 206.951 178.576 206.505 178.576C206.062 178.576 205.635 178.52 205.229 178.415C204.822 178.302 204.461 178.14 204.151 177.935C203.84 177.723 203.592 177.474 203.407 177.181C203.222 176.889 203.129 176.553 203.129 176.173ZM234.666 176.173C234.666 176.553 234.574 176.889 234.391 177.181C234.203 177.474 233.959 177.723 233.645 177.935C233.334 178.14 232.976 178.302 232.57 178.415C232.16 178.52 231.737 178.576 231.29 178.576C230.848 178.576 230.421 178.52 230.014 178.415C229.608 178.302 229.247 178.14 228.937 177.935C228.626 177.723 228.378 177.474 228.193 177.181C228.008 176.889 227.915 176.553 227.915 176.173V169.611C227.915 169.238 228.008 168.902 228.193 168.609C228.378 168.317 228.626 168.067 228.937 167.855C229.247 167.644 229.608 167.488 230.014 167.376C230.421 167.27 230.848 167.215 231.29 167.215C231.737 167.215 232.16 167.27 232.57 167.376C232.976 167.488 233.334 167.644 233.645 167.855C233.959 168.067 234.203 168.317 234.391 168.609C234.574 168.902 234.666 169.237 234.666 169.611V176.173ZM234.824 188.621C235.117 187.962 235.659 187.622 236.413 187.621C237.386 187.62 238.36 187.621 239.369 187.621C240.319 191.905 241.269 196.184 242.224 200.489C241.116 200.489 240.054 200.489 238.963 200.489C238.86 200.031 238.754 199.572 238.654 199.111C238.538 198.571 238.541 198.571 237.946 198.571C236.705 198.571 235.463 198.574 234.221 198.568C234.048 198.566 233.964 198.614 233.907 198.772C233.721 199.292 233.52 199.808 233.312 200.321C233.283 200.393 233.18 200.489 233.109 200.49C231.933 200.5 230.757 200.497 229.555 200.497C229.585 200.416 229.604 200.353 229.631 200.292C231.361 196.401 233.092 192.512 234.824 188.621ZM228.922 187.572C229.309 187.651 229.69 187.759 230.072 187.859C230.165 187.883 230.252 187.923 230.361 187.962C230.155 188.863 229.953 189.755 229.75 190.647C229.284 190.509 228.839 190.352 228.38 190.247C227.553 190.058 226.709 189.976 225.876 190.187C225.576 190.264 225.272 190.424 225.037 190.617C224.638 190.945 224.637 191.424 225.023 191.766C225.285 191.999 225.593 192.195 225.905 192.368C226.526 192.713 227.178 193.011 227.79 193.368C228.614 193.849 229.299 194.463 229.573 195.379C229.972 196.708 229.536 198.481 227.964 199.549C227.058 200.165 226.035 200.486 224.945 200.618C223.23 200.825 221.548 200.667 219.909 200.137C219.818 200.108 219.73 200.07 219.614 200.025C219.826 199.09 220.036 198.162 220.251 197.212C220.39 197.269 220.509 197.314 220.624 197.366C221.638 197.819 222.708 198.035 223.828 198.023C224.342 198.018 224.845 197.943 225.309 197.712C226.156 197.291 226.268 196.474 225.522 195.917C225.157 195.645 224.737 195.43 224.322 195.227C223.63 194.887 222.945 194.544 222.344 194.067C220.628 192.71 220.846 190.813 221.775 189.536C222.54 188.485 223.663 187.93 224.94 187.626C225.347 187.529 225.771 187.494 226.185 187.428C226.247 187.418 226.306 187.398 226.367 187.382C226.822 187.382 227.277 187.382 227.731 187.382C228.128 187.444 228.528 187.492 228.922 187.572ZM226.404 176.173C226.404 176.553 226.312 176.889 226.13 177.181C225.941 177.474 225.696 177.723 225.383 177.935C225.072 178.14 224.714 178.302 224.308 178.415C223.898 178.52 223.475 178.576 223.029 178.576C222.586 178.576 222.159 178.52 221.752 178.415C221.346 178.302 220.985 178.14 220.674 177.935C220.364 177.723 220.116 177.474 219.931 177.181C219.745 176.889 219.653 176.553 219.653 176.173V169.611C219.653 169.238 219.745 168.902 219.931 168.609C220.116 168.317 220.364 168.067 220.674 167.855C220.985 167.644 221.346 167.488 221.752 167.376C222.159 167.27 222.586 167.215 223.029 167.215C223.475 167.215 223.898 167.27 224.308 167.376C224.714 167.488 225.072 167.644 225.383 167.855C225.696 168.067 225.941 168.317 226.13 168.609C226.312 168.902 226.404 169.237 226.404 169.611V176.173ZM220.095 187.63C220.001 188.055 219.912 188.464 219.82 188.873C218.963 192.648 218.103 196.422 217.254 200.199C217.2 200.441 217.109 200.511 216.847 200.507C215.881 200.49 214.915 200.501 213.949 200.501C213.86 200.501 213.772 200.501 213.639 200.501C214.62 196.187 215.593 191.906 216.565 187.63C217.749 187.63 218.908 187.63 220.095 187.63ZM218.142 176.173C218.142 176.553 218.05 176.889 217.868 177.181C217.68 177.474 217.434 177.723 217.12 177.935C216.81 178.14 216.453 178.302 216.046 178.415C215.636 178.52 215.213 178.576 214.767 178.576C214.324 178.576 213.897 178.52 213.491 178.415C213.084 178.302 212.723 178.14 212.413 177.935C212.102 177.723 211.854 177.474 211.669 177.181C211.484 176.889 211.391 176.553 211.391 176.173V169.611C211.391 169.238 211.484 168.902 211.669 168.609C211.854 168.317 212.102 168.067 212.413 167.855C212.723 167.644 213.084 167.488 213.491 167.376C213.897 167.27 214.324 167.215 214.767 167.215C215.213 167.215 215.636 167.27 216.046 167.376C216.453 167.488 216.81 167.644 217.12 167.855C217.434 168.067 217.68 168.317 217.868 168.609C218.05 168.902 218.142 169.237 218.142 169.611V176.173ZM239.943 116.291H177.914C176.513 116.291 175.375 115.22 175.375 113.9C175.375 112.58 176.513 111.51 177.914 111.51H239.943C241.345 111.51 242.482 112.58 242.482 113.9C242.482 115.22 241.345 116.291 239.943 116.291Z" fill="#B27409"/>
<g clip-path="url(#clip0_19_425)">
<path d="M212.459 151.495L213.773 154.594C215.804 153.933 219.112 153 220.106 153C221.547 153 222.62 153.35 223.861 153.753C225.194 154.189 226.706 154.681 228.704 154.681C230.728 154.681 233.997 153.133 234.631 152.823L233.092 149.816C231.852 150.421 229.6 151.319 228.704 151.319C227.263 151.319 226.19 150.969 224.948 150.565C223.616 150.13 222.104 149.637 220.106 149.637C219.712 149.637 219.201 149.7 218.632 149.804C219.594 147.872 220.106 145.537 220.106 142.912H225.265V139.549H219.463C219.391 139.37 219.318 139.186 219.248 139.016C218.804 137.956 218.386 136.952 218.386 134.505C218.386 132.204 219.282 129.462 223.545 129.462C227.369 129.462 228.74 133.206 228.793 133.355L232.054 132.291C231.968 132.039 229.871 126.099 223.545 126.099C217.205 126.099 214.947 130.442 214.947 134.505C214.947 137.012 215.35 138.457 215.769 139.549H211.508V142.912H216.667C216.667 147.06 215.133 150.189 212.459 151.495Z" fill="#FFFDFD"/>
</g>
<defs>
<clipPath id="clip0_19_425">
<rect width="41.2698" height="40.3517" fill="white" transform="translate(213.228 114.33)"/>
</clipPath>
</defs>
</svg>
