<svg width="62" height="29" viewBox="0 0 62 29" fill="none" xmlns="http://www.w3.org/2000/svg">
<path d="M14.0808 20.613C13.8336 20.613 13.6331 20.9041 13.6331 21.2633C13.6331 21.6225 13.8335 21.9135 14.0808 21.9135C14.3281 21.9135 14.5285 21.6224 14.5285 21.2633C14.5285 20.9042 14.3281 20.613 14.0808 20.613ZM13.4429 19.3039C13.4868 19.2737 13.5318 19.2463 13.5779 19.2223V16.9899C13.1285 17.1007 12.7132 17.3575 12.3562 17.7254L13.4429 19.3039ZM14.5836 23.3041V25.5364C15.0331 25.4257 15.4484 25.1689 15.8056 24.8011L14.7188 23.2226C14.6748 23.2529 14.6298 23.2801 14.5836 23.3041ZM14.0808 22.4582C13.976 22.4582 13.8911 22.5816 13.8911 22.7338C13.8911 22.886 13.976 23.0094 14.0808 23.0094C14.1856 23.0094 14.2705 22.886 14.2705 22.7338C14.2705 22.5816 14.1856 22.4582 14.0808 22.4582ZM15.4299 22.1897L16.5167 23.768C16.77 23.2493 16.9468 22.6464 17.0231 21.9935H15.486C15.4696 22.0606 15.4507 22.1259 15.4299 22.1897ZM15.43 20.3366C15.4508 20.4003 15.4694 20.4658 15.4859 20.5329H17.0231C16.9468 19.8801 16.7701 19.2769 16.5168 18.7582L15.43 20.3366ZM12.7318 20.3368L11.645 18.7583C11.3916 19.277 11.2148 19.8801 11.1386 20.5329H12.6756C12.6921 20.4658 12.711 20.4005 12.7318 20.3368ZM14.9037 21.2631C14.9037 21.4154 14.9886 21.5387 15.0934 21.5387C15.1982 21.5387 15.2831 21.4154 15.2831 21.2631C15.2831 21.1109 15.1982 20.9875 15.0934 20.9875C14.9886 20.9875 14.9037 21.1109 14.9037 21.2631ZM14.0808 20.0681C14.1856 20.0681 14.2705 19.9447 14.2705 19.7925C14.2705 19.6403 14.1856 19.5169 14.0808 19.5169C13.976 19.5169 13.8911 19.6403 13.8911 19.7925C13.8911 19.9447 13.976 20.0681 14.0808 20.0681ZM15.8055 17.7255C15.4483 17.3576 15.0332 17.1006 14.5836 16.9899V19.2223C14.6298 19.2462 14.6747 19.2738 14.7186 19.304L15.8055 17.7255ZM14.0808 14.1652C11.3817 14.1652 9.1937 17.3431 9.1937 21.2632C9.1937 25.1832 11.3818 28.3612 14.0808 28.3612C16.7799 28.3612 18.9679 25.1832 18.9679 21.2632C18.9679 17.3431 16.7799 14.1652 14.0808 14.1652ZM14.0808 26.3332C12.1529 26.3332 10.59 24.0633 10.59 21.2632C10.59 18.4631 12.1529 16.1933 14.0808 16.1933C16.0088 16.1933 17.5716 18.4631 17.5716 21.2632C17.5716 24.0633 16.0088 26.3332 14.0808 26.3332ZM12.3562 24.801C12.7133 25.1688 13.1285 25.4258 13.5779 25.5364V23.3041C13.5318 23.2801 13.4869 23.2526 13.443 23.2224L12.3562 24.801ZM13.258 21.2631C13.258 21.1109 13.1731 20.9875 13.0683 20.9875C12.9635 20.9875 12.8785 21.1109 12.8785 21.2631C12.8785 21.4154 12.9635 21.5387 13.0683 21.5387C13.1731 21.5387 13.258 21.4154 13.258 21.2631ZM12.6757 21.9936H11.1385C11.2148 22.6465 11.3915 23.2495 11.6449 23.7683L12.7316 22.1899C12.7109 22.1261 12.6922 22.0606 12.6757 21.9936ZM61.9428 20.0131C61.9428 18.9188 61.9428 17.8242 61.9428 16.7298C61.8837 16.6869 61.8246 16.644 61.7655 16.601C61.7507 16.365 61.7359 16.1288 61.7211 15.8928C61.5916 15.192 61.4472 14.2786 61.1892 13.704C60.6964 12.606 59.807 12.071 58.9286 11.5151C56.5332 9.99912 49.9432 8.10843 47.9537 8.04062C48.019 8.04936 47.9939 8.05048 47.8469 8.03848C47.8807 8.03848 47.9167 8.0394 47.9537 8.04062C47.6362 7.99822 45.1761 7.77385 44.16 7.96711C44.1508 7.9721 44.1383 7.97423 44.1235 7.97413C44.1354 7.97169 44.1478 7.96935 44.16 7.96711C44.3177 7.88263 43.4791 6.94353 35.2138 0.828079C35.0441 0.702622 34.866 0.72082 34.7262 0.570557C33.8883 0.637148 33.3181 1.4697 33.1747 2.05123C33.2251 2.19082 35.4294 3.24215 36.8982 4.75516C37.6629 5.54297 37.4042 5.29796 37.962 6.23583C37.7428 6.71651 37.356 8.24487 38.0063 8.55353C36.4551 8.80424 37.4742 7.44455 37.5631 6.17148C37.0853 6.00118 36.5878 8.55353 36.5878 8.55353L27.5009 7.90977C27.5009 7.90977 27.0715 7.94454 26.969 7.84532C26.7505 6.23786 27.6603 5.58994 26.969 3.14557C26.8896 2.86477 26.3039 2.39944 25.9938 2.69488C25.839 2.05042 25.5428 6.02192 25.5505 7.84521C25.6261 7.96925 16.7139 7.26582 16.6409 7.20146C16.5851 3.86954 16.5489 4.37442 16.4636 3.40309C16.6451 3.47192 14.9965 2.64761 14.6461 4.94822C14.5555 5.44476 14.4634 6.03789 14.4688 6.68642C13.3796 6.29185 11.7316 6.49325 10.3908 6.49335C9.10809 6.49345 7.9218 6.40765 6.66733 6.81523C5.97391 7.04062 5.26677 6.92686 4.6283 7.13711C3.86495 7.38863 3.06408 7.22098 2.32334 7.45909C2.05937 7.54388 1.76677 7.33973 1.6141 7.45909C1.15049 7.68641 1.05809 8.76204 1.08217 9.71232C1.34894 10.0817 1.05179 9.92237 1.43679 10.0342C1.43616 11.327 1.37715 13.0639 1.08217 13.7682C1.01196 13.9634 0.196321 14.339 0.0183105 14.4764C0.0478505 15.4421 0.0773907 16.4079 0.106931 17.3735C0.270311 18.0909 1.13005 19.0097 0.284241 19.8199C0.324211 20.3231 0.54394 20.4 0.63886 20.7857C0.84053 20.8502 1.00118 20.9167 1.25941 20.9145C1.31849 21.2362 1.37764 21.5582 1.43672 21.8801C1.9865 23.4896 3.07367 22.8391 5.24878 22.9102C5.54425 22.9961 6.13533 23.2965 6.13533 23.2965H9.01828C9.01716 23.2323 9.0166 23.1679 9.0166 23.1033V21.1076C9.0166 16.9832 11.3187 13.6396 14.1585 13.6396C16.9983 13.6396 19.3004 16.9832 19.3004 21.1076V23.1033C19.3004 23.168 19.2998 23.2324 19.2988 23.2965H46.4043L46.4418 20.8501C46.4418 16.8679 48.7397 13.6396 51.4815 13.6396C54.2234 13.6396 56.4462 16.8679 56.4462 20.8501V23.2965H57.377C57.377 23.2965 59.6526 23.1677 60.7902 23.1033C61.7571 22.6832 61.9793 22.2161 61.3431 21.5592C61.3325 21.5927 61.3131 21.5778 61.2778 21.4939C61.3004 21.5159 61.3223 21.5377 61.3431 21.5592C61.3858 21.4252 61.2864 20.5014 61.4994 20.0132C61.6472 20.0131 61.7951 20.0131 61.9428 20.0131ZM51.9691 23.3041V25.5364C52.4186 25.4257 52.8339 25.1689 53.191 24.8011L52.1042 23.2226C52.0602 23.2529 52.0152 23.2801 51.9691 23.3041ZM51.4662 20.613C51.219 20.613 51.0185 20.9041 51.0185 21.2633C51.0185 21.6225 51.2189 21.9135 51.4662 21.9135C51.7135 21.9135 51.9139 21.6224 51.9139 21.2633C51.9139 20.9042 51.7134 20.613 51.4662 20.613ZM50.8284 19.3039C50.8723 19.2737 50.9173 19.2463 50.9634 19.2223V16.9899C50.5139 17.1007 50.0987 17.3575 49.7416 17.7254L50.8284 19.3039ZM51.4662 22.4582C51.3614 22.4582 51.2765 22.5816 51.2765 22.7338C51.2765 22.886 51.3614 23.0094 51.4662 23.0094C51.5711 23.0094 51.656 22.886 51.656 22.7338C51.656 22.5816 51.5711 22.4582 51.4662 22.4582ZM51.4662 14.1652C48.7671 14.1652 46.5791 17.3431 46.5791 21.2632C46.5791 25.1832 48.7671 28.3612 51.4662 28.3612C54.1653 28.3612 56.3533 25.1832 56.3533 21.2632C56.3533 17.3431 54.1653 14.1652 51.4662 14.1652ZM51.4662 26.3332C49.5383 26.3332 47.9755 24.0633 47.9755 21.2632C47.9755 18.4631 49.5383 16.1933 51.4662 16.1933C53.3941 16.1933 54.957 18.4631 54.957 21.2632C54.957 24.0633 53.3941 26.3332 51.4662 26.3332ZM52.8154 20.3366C52.8362 20.4003 52.8548 20.4658 52.8713 20.5329H54.4085C54.3322 19.8801 54.1555 19.2769 53.9022 18.7582L52.8154 20.3366ZM52.8152 22.1897L53.9021 23.768C54.1554 23.2493 54.3322 22.6464 54.4084 21.9935H52.8715C52.8549 22.0606 52.8361 22.1259 52.8152 22.1897ZM52.2891 21.2631C52.2891 21.4154 52.374 21.5387 52.4788 21.5387C52.5836 21.5387 52.6686 21.4154 52.6686 21.2631C52.6686 21.1109 52.5836 20.9875 52.4788 20.9875C52.374 20.9875 52.2891 21.1109 52.2891 21.2631ZM51.4662 20.0681C51.5711 20.0681 51.656 19.9447 51.656 19.7925C51.656 19.6403 51.5711 19.5169 51.4662 19.5169C51.3614 19.5169 51.2765 19.6403 51.2765 19.7925C51.2765 19.9447 51.3614 20.0681 51.4662 20.0681ZM50.1172 20.3368L49.0304 18.7583C48.7771 19.277 48.6003 19.8801 48.524 20.5329H50.0611C50.0775 20.4658 50.0964 20.4005 50.1172 20.3368ZM53.1909 17.7255C52.8337 17.3576 52.4186 17.1006 51.9691 16.9899V19.2223C52.0152 19.2462 52.0602 19.2738 52.1041 19.304L53.1909 17.7255ZM50.0611 21.9936H48.5239C48.6003 22.6465 48.777 23.2495 49.0303 23.7683L50.117 22.1899C50.0963 22.1261 50.0776 22.0606 50.0611 21.9936ZM50.6434 21.2631C50.6434 21.1109 50.5585 20.9875 50.4537 20.9875C50.3489 20.9875 50.2639 21.1109 50.2639 21.2631C50.2639 21.4154 50.3489 21.5387 50.4537 21.5387C50.5585 21.5387 50.6434 21.4154 50.6434 21.2631ZM49.7416 24.801C50.0987 25.1688 50.5139 25.4258 50.9633 25.5364V23.3041C50.9172 23.2801 50.8723 23.2526 50.8284 23.2224L49.7416 24.801Z" fill="#B27409"/>
</svg>
