<svg width="126" height="125" viewBox="0 0 126 125" fill="none" xmlns="http://www.w3.org/2000/svg">
<path d="M89.8678 64.8394C87.5557 63.6923 86.3359 65.4735 86.4162 66.127C86.52 66.9854 86.7299 67.4966 88.5631 67.8399C90.3916 68.1833 91.5949 65.6978 89.8678 64.8394ZM98.0735 62.2388C96.6108 61.5111 95.8322 62.6407 95.8841 63.0543C95.9502 63.6006 96.0823 63.9244 97.2454 64.1429C98.4062 64.3575 99.1683 62.7831 98.0712 62.2388H98.0735ZM90.2005 55.0868C88.2258 54.1074 87.1806 55.6272 87.2514 56.1851C87.341 56.9148 87.5203 57.3557 89.0822 57.6483C90.6441 57.9409 91.6727 55.8144 90.1981 55.0848L90.2005 55.0868ZM81.8627 51.4619C79.5505 50.3148 78.3308 52.096 78.411 52.7495C78.5148 53.608 78.7248 54.1191 80.558 54.4625C82.3864 54.8078 83.5897 52.3203 81.8627 51.4619ZM92.272 44.5167C89.9598 43.3695 88.7401 45.1507 88.8203 45.8043C88.9241 46.6627 89.1341 47.1738 90.9673 47.5172C92.7958 47.8605 93.999 45.3751 92.272 44.5167ZM80.6217 45.9447C78.9324 45.1058 78.0358 46.4091 78.0972 46.8851C78.168 47.5133 78.3237 47.8898 79.6638 48.1395C81.0039 48.3931 81.8863 46.5729 80.6217 45.9447ZM39.6969 56.0408C42.0326 56.4778 43.5709 53.3036 41.3673 52.2091C38.4181 50.7459 36.861 53.0207 36.9601 53.8538C37.0946 54.9463 37.3612 55.6057 39.6969 56.0427V56.0408ZM43.1415 64.4941C40.3811 63.1226 38.923 65.2511 39.0174 66.0314C39.1425 67.0556 39.3949 67.6702 41.5796 68.0799C43.7691 68.4896 45.2083 65.5203 43.1439 64.4941H43.1415ZM50.1959 55.196C48.5609 54.3844 47.695 55.6447 47.754 56.1051C47.8248 56.7099 47.9734 57.0767 49.2687 57.3186C50.5663 57.5605 51.4156 55.8027 50.1935 55.196H50.1959ZM33.3668 66.1173C31.3378 65.1086 30.2643 66.6713 30.3351 67.2449C30.4295 67.9979 30.6112 68.4506 32.2179 68.751C33.8269 69.0534 34.8839 66.8684 33.3668 66.1173ZM37.7552 75.111C36.0093 74.2428 35.0891 75.5909 35.1458 76.0865C35.226 76.7303 35.3817 77.1205 36.769 77.3819C38.1539 77.6394 39.0646 75.7587 37.7599 75.111H37.7552ZM61.4192 8.00907C65.7603 8.82261 68.6151 2.92497 64.5217 0.892113C59.048 -1.82747 56.1461 2.39432 56.3348 3.9414C56.5802 5.97621 57.0757 7.19554 61.4192 8.00907ZM62.764 2.54649C64.4627 3.39124 63.2783 5.84355 61.4711 5.50604C59.6662 5.16853 59.4586 4.66129 59.3571 3.81459C59.2793 3.17079 60.4849 1.41496 62.7616 2.54649H62.764ZM125.074 95.7518C123.193 93.6057 110.481 97.767 110.061 97.81C109.644 97.8529 101.952 77.6179 101.898 77.1009C101.851 76.5859 104.203 74.9159 105.72 71.6579C107.237 68.3998 108.598 62.1803 107.027 57.8063C105.461 53.4363 90.7597 22.522 89.5564 21.5777C88.3532 20.6374 80.6099 21.6226 75.0655 23.1658C69.5211 24.707 59.737 27.411 59.6827 28.482C59.6355 29.5511 63.8186 39.3682 63.8186 39.3682C63.8186 39.3682 58.4818 36.5003 52.777 34.7835C47.0769 33.0667 37.8094 31.344 37.0332 31.8688C33.7373 34.0987 19.3501 69.5997 19.2982 72.6431C19.2463 75.6865 25.1564 85.0763 25.055 85.5484C24.9488 86.0225 12.0268 115.306 12.0268 115.306C12.0268 115.306 1.24942 113.121 0.466123 114.877C-0.31953 116.632 4.70346 121.521 11.8711 123.193C19.0387 124.865 29.1885 125.509 29.7618 124.052C30.3398 122.594 21.969 118.219 21.3933 117.622C20.8176 117.021 34.2091 88.6387 35.3086 88.1236C36.4104 87.6086 46.7678 83.9214 48.0253 82.9342C49.2757 81.9509 51.8946 79.9356 55.6082 72.132C59.3217 64.3283 65.1823 44.263 65.1823 44.263C65.1823 44.263 74.1807 68.4018 78.1585 73.3747C82.1316 78.3495 91.9676 79.0772 92.1257 79.1631C92.2814 79.2489 102.011 100.214 102.011 100.214C94.9498 103.128 90.1911 107.974 91.5477 109.519C92.9043 111.065 99.9185 110.46 110.54 106.944C121.157 103.427 126.966 97.8958 125.083 95.7518H125.074ZM48.2306 76.6717C45.4065 81.0028 35.5185 83.8316 33.8434 85.0763C32.1683 86.319 18.4135 116.115 18.2011 117.661C17.9888 119.202 23.6417 121.648 23.6417 122.245C23.6417 122.85 16.2099 122.161 13.1262 121.047C10.0355 119.935 5.59057 116.802 5.69438 116.545C5.79819 116.287 12.862 117.871 13.2796 117.618C13.6972 117.358 28.6081 83.7029 28.6624 83.4883C28.7095 83.2737 24.7884 74.1824 24.5265 71.9973C24.2646 69.8123 33.3126 47.7279 35.7733 44.1304C35.9196 43.9099 40.5321 43.1003 42.6767 43.5705C44.8237 44.0426 47.0721 44.9849 48.9053 45.0727C50.7338 45.1566 55.075 44.3411 55.8087 44.5128C56.5401 44.6844 60.1498 45.5858 60.0979 45.7555C60.0508 45.9311 51.0523 72.3426 48.2258 76.6737L48.2306 76.6717ZM60.5769 43.5314C60.5769 43.5314 60.0036 41.1318 55.0325 41.9453C50.0661 42.7608 50.2195 43.0574 48.2848 42.8038C46.3502 42.5462 43.7361 41.561 42.6366 41.4771C41.5372 41.3893 36.6203 42.0761 36.6203 41.9453C36.6203 41.8185 39.3406 34.3172 39.6025 34.1417C40.0933 33.8217 47.1877 35.4293 52.0008 36.9315C56.8138 38.4298 61.6268 40.8333 61.6268 41.1747C61.6268 41.5161 60.5792 43.5314 60.5792 43.5314H60.5769ZM64.8166 29.2975C65.0761 29.04 71.1466 26.9818 75.6459 25.782C80.1451 24.5821 86.4751 23.5091 86.7347 23.7667C86.9989 24.0242 91.0286 33.5018 90.8706 33.97C90.7125 34.4421 84.0686 33.5837 82.4478 33.97C80.8269 34.3563 77.5829 35.599 76.1177 35.599C74.6549 35.599 72.9798 34.9123 71.8804 34.9981C70.7833 35.082 67.9592 36.0243 67.9592 36.0243C67.5935 35.9404 64.5618 29.5531 64.8213 29.2936L64.8166 29.2975ZM94.1123 77.5731C90.8163 74.2292 86.4209 74.0146 84.2267 72.2997C82.0278 70.5829 76.7949 58.8774 72.9256 50.2153C69.0563 41.5571 67.7988 37.5694 69.0563 37.8699C69.0563 37.8699 70.7786 37.1831 72.8218 37.3548C74.8626 37.5265 76.0658 38.1274 77.4767 37.7411C78.8923 37.3548 80.5627 36.4145 82.1316 36.3696C83.7006 36.3267 87.676 36.9276 89.1388 36.8847C90.6063 36.8417 92.1752 36.155 92.1752 36.155C92.1752 36.155 102.377 57.2055 102.691 59.0491C103.005 60.8927 102.219 68.9949 100.65 71.3106C99.081 73.6264 98.661 76.2855 98.8191 76.7537C98.9725 77.2278 107.815 100.165 108.025 100.508C108.238 100.85 108.705 101.706 108.497 102.049C108.285 102.393 106.35 102.607 106.35 102.607C106.35 102.607 97.4082 80.913 94.1099 77.5692L94.1123 77.5731ZM109.023 104.925C102.224 107.286 95.5278 108.657 95.0041 108.099C94.4803 107.539 100.548 102.395 102.903 101.965C103.132 101.926 104.158 104.365 104.524 104.496C104.89 104.625 107.976 103.809 109.441 103.253C110.908 102.695 111.692 102.141 111.432 101.839C111.173 101.54 110.646 100.641 110.804 100.383C110.96 100.126 120.744 96.0951 122.051 97.3827C123.358 98.6664 115.823 102.568 109.028 104.927L109.023 104.925ZM46.9235 15.3016C51.2646 16.1132 54.1194 10.2156 50.0236 8.18075C44.55 5.46312 41.6481 9.68296 41.8368 11.232C42.0845 13.2668 42.58 14.4861 46.9235 15.2997V15.3016ZM48.2683 9.83904C49.967 10.6818 48.7826 13.1361 46.9754 12.7966C45.1705 12.4591 44.9629 11.9519 44.8615 11.1052C44.7836 10.4614 45.9892 8.70555 48.266 9.83709L48.2683 9.83904ZM56.8091 18.0134C57.0379 19.8765 57.4933 20.9925 61.4663 21.7397C65.4394 22.481 68.0488 17.0848 64.3046 15.2236C59.291 12.7362 56.6368 16.599 56.8114 18.0134H56.8091ZM61.5135 19.4454C59.862 19.1332 59.6733 18.6709 59.5789 17.8983C59.5081 17.3091 60.6099 15.7016 62.6932 16.7375C64.2503 17.512 63.1651 19.7556 61.5135 19.4454Z" fill="black"/>
</svg>
