<svg width="311" height="288" viewBox="0 0 311 288" fill="none" xmlns="http://www.w3.org/2000/svg">
<path d="M249.701 209.111H61.2981C53.395 209.111 46.9888 203.178 46.9888 195.86V92.1406C46.9888 84.822 53.3958 78.8887 61.2988 78.8887H249.701C257.604 78.8887 264.011 84.8219 264.011 92.1406V195.86C264.011 203.178 257.604 209.111 249.701 209.111Z" fill="#F9F9F9"/>
<path d="M100.578 107.598H75.1199C71.5719 107.598 68.6953 110.262 68.6953 113.547V132.413C68.6953 135.699 71.5719 138.362 75.1199 138.362H100.578C104.126 138.362 107.003 135.699 107.003 132.413V113.547C107.003 110.262 104.126 107.598 100.578 107.598Z" fill="white"/>
<path d="M249.701 209.111H61.2981C53.395 209.111 46.9888 203.178 46.9888 195.86V92.1406C46.9888 84.822 53.3958 78.8887 61.2988 78.8887H249.701C257.604 78.8887 264.011 84.8219 264.011 92.1406V195.86C264.011 203.178 257.604 209.111 249.701 209.111Z" stroke="#0D0D0C" stroke-width="0.8" stroke-miterlimit="10" stroke-linecap="round" stroke-linejoin="round"/>
<path d="M100.578 107.598H75.1199C71.5719 107.598 68.6953 110.262 68.6953 113.547V132.413C68.6953 135.699 71.5719 138.362 75.1199 138.362H100.578C104.126 138.362 107.003 135.699 107.003 132.413V113.547C107.003 110.262 104.126 107.598 100.578 107.598Z" stroke="#0D0D0C" stroke-width="0.5" stroke-miterlimit="10" stroke-linecap="round" stroke-linejoin="round"/>
<path d="M82.3524 107.604C81.6255 109.048 80.7768 111.18 80.2626 113.831C79.7632 116.411 79.5963 119.511 80.1872 122.976C80.6712 125.768 81.6404 128.783 83.3675 131.981" stroke="#0D0D0C" stroke-width="0.5" stroke-miterlimit="10" stroke-linecap="round" stroke-linejoin="round"/>
<path d="M68.6953 131.977H107.003" stroke="#0D0D0C" stroke-width="0.5" stroke-miterlimit="10" stroke-linecap="round" stroke-linejoin="round"/>
<path d="M80.2625 113.831H68.6904" stroke="#0D0D0C" stroke-width="0.5" stroke-miterlimit="10" stroke-linecap="round" stroke-linejoin="round"/>
<path d="M80.1872 122.976H68.6904" stroke="#0D0D0C" stroke-width="0.5" stroke-miterlimit="10" stroke-linecap="round" stroke-linejoin="round"/>
<path d="M94.1663 107.604C94.8784 109.048 95.7265 111.18 96.2421 113.831C96.7415 116.411 96.9084 119.511 96.3174 122.976C95.8329 125.768 94.8629 128.783 93.1372 131.981" stroke="#0D0D0C" stroke-width="0.5" stroke-miterlimit="10" stroke-linecap="round" stroke-linejoin="round"/>
<path d="M106.996 113.831H96.2419" stroke="#0D0D0C" stroke-width="0.5" stroke-miterlimit="10" stroke-linecap="round" stroke-linejoin="round"/>
<path d="M106.996 122.976H96.3174" stroke="#0D0D0C" stroke-width="0.5" stroke-miterlimit="10" stroke-linecap="round" stroke-linejoin="round"/>
<path d="M172.231 102.26H239.553" stroke="#0D0D0C" stroke-width="0.8" stroke-miterlimit="10" stroke-linecap="round" stroke-linejoin="round"/>
<path d="M67.9961 187.789H142.655" stroke="#0D0D0C" stroke-width="0.8" stroke-miterlimit="10" stroke-linecap="round" stroke-linejoin="round"/>
<path d="M65.1016 161.733C65.1016 161.334 65.203 160.975 65.403 160.663C65.6038 160.351 65.8736 160.085 66.2109 159.858C66.5483 159.633 66.9393 159.466 67.3802 159.347C67.8218 159.233 68.2846 159.175 68.765 159.175C69.2495 159.175 69.7088 159.233 70.154 159.347C70.5949 159.466 70.983 159.633 71.3204 159.858C71.6613 160.085 71.9268 160.351 72.1311 160.663C72.3284 160.975 72.4291 161.334 72.4291 161.733V168.737C72.4291 169.143 72.3284 169.502 72.1311 169.814C71.9268 170.127 71.6613 170.393 71.3204 170.618C70.983 170.838 70.5949 171.01 70.154 171.13C69.7088 171.243 69.2495 171.303 68.765 171.303C68.2846 171.303 67.8218 171.243 67.3802 171.13C66.9392 171.01 66.5483 170.838 66.2109 170.618C65.8736 170.393 65.6038 170.127 65.403 169.814C65.203 169.502 65.1016 169.143 65.1016 168.737V161.733ZM67.5634 168.737C67.5634 168.984 67.6747 169.189 67.9001 169.349C68.1234 169.515 68.4143 169.595 68.7651 169.595C69.1208 169.595 69.411 169.515 69.6343 169.349C69.8597 169.189 69.971 168.984 69.971 168.737V161.733C69.971 161.494 69.8597 161.288 69.6343 161.122C69.411 160.961 69.1208 160.882 68.7651 160.882C68.4143 160.882 68.1234 160.961 67.9001 161.122C67.6747 161.288 67.5634 161.494 67.5634 161.733V168.737Z" fill="#0D0D0C"/>
<path d="M74.0691 161.733C74.0691 161.334 74.1698 160.975 74.3706 160.663C74.572 160.351 74.8404 160.085 75.1778 159.858C75.5152 159.633 75.9061 159.466 76.3478 159.347C76.7887 159.233 77.2522 159.175 77.7325 159.175C78.2165 159.175 78.6757 159.233 79.1215 159.347C79.5632 159.466 79.9506 159.633 80.2873 159.858C80.6289 160.085 80.8937 160.351 81.098 160.663C81.296 160.975 81.3966 161.334 81.3966 161.733V168.737C81.3966 169.143 81.2959 169.502 81.098 169.814C80.8937 170.127 80.6289 170.393 80.2873 170.618C79.9506 170.838 79.5632 171.01 79.1215 171.13C78.6757 171.243 78.2164 171.303 77.7325 171.303C77.2522 171.303 76.7887 171.243 76.3478 171.13C75.9061 171.01 75.5152 170.838 75.1778 170.618C74.8404 170.393 74.5721 170.127 74.3706 169.814C74.1698 169.502 74.0691 169.143 74.0691 168.737V161.733ZM76.5309 168.737C76.5309 168.984 76.6422 169.189 76.8683 169.349C77.0901 169.515 77.381 169.595 77.7325 169.595C78.0882 169.595 78.3785 169.515 78.601 169.349C78.8271 169.189 78.9384 168.984 78.9384 168.737V161.733C78.9384 161.494 78.8271 161.288 78.601 161.122C78.3785 160.961 78.0882 160.882 77.7325 160.882C77.381 160.882 77.0901 160.961 76.8683 161.122C76.6422 161.288 76.5309 161.494 76.5309 161.733V168.737Z" fill="#0D0D0C"/>
<path d="M83.0356 161.733C83.0356 161.334 83.1364 160.975 83.3371 160.663C83.5386 160.351 83.8076 160.085 84.145 159.858C84.4824 159.633 84.8733 159.466 85.3149 159.347C85.7559 159.233 86.2187 159.175 86.699 159.175C87.1843 159.175 87.6436 159.233 88.088 159.347C88.5297 159.466 88.9171 159.633 89.2545 159.858C89.5954 160.085 89.8609 160.351 90.0659 160.663C90.2624 160.975 90.3632 161.334 90.3632 161.733V168.737C90.3632 169.143 90.2624 169.502 90.0659 169.814C89.8609 170.127 89.5954 170.393 89.2545 170.618C88.9171 170.838 88.5297 171.01 88.088 171.13C87.6436 171.243 87.1843 171.303 86.699 171.303C86.2187 171.303 85.7559 171.243 85.3149 171.13C84.8733 171.01 84.4824 170.838 84.145 170.618C83.8076 170.393 83.5386 170.127 83.3371 169.814C83.1364 169.502 83.0356 169.143 83.0356 168.737V161.733ZM85.4981 168.737C85.4981 168.984 85.6087 169.189 85.8348 169.349C86.0567 169.515 86.3483 169.595 86.6991 169.595C87.0548 169.595 87.345 169.515 87.5683 169.349C87.7944 169.189 87.905 168.984 87.905 168.737V161.733C87.905 161.494 87.7944 161.288 87.5683 161.122C87.345 160.961 87.0548 160.882 86.6991 160.882C86.3483 160.882 86.0567 160.961 85.8348 161.122C85.6087 161.288 85.4981 161.494 85.4981 161.733V168.737Z" fill="#0D0D0C"/>
<path d="M92.0032 161.733C92.0032 161.334 92.1039 160.975 92.3047 160.663C92.5061 160.351 92.7745 160.085 93.1119 159.858C93.4493 159.633 93.8402 159.466 94.2818 159.347C94.7228 159.233 95.1863 159.175 95.6673 159.175C96.1513 159.175 96.6105 159.233 97.0556 159.347C97.4973 159.466 97.884 159.633 98.2214 159.858C98.5623 160.085 98.8278 160.351 99.0328 160.663C99.23 160.975 99.3308 161.334 99.3308 161.733V168.737C99.3308 169.143 99.23 169.502 99.0328 169.814C98.8278 170.127 98.5623 170.393 98.2214 170.618C97.884 170.838 97.4973 171.01 97.0556 171.13C96.6104 171.243 96.1512 171.303 95.6673 171.303C95.1863 171.303 94.7228 171.243 94.2818 171.13C93.8402 171.01 93.4493 170.838 93.1119 170.618C92.7745 170.393 92.5062 170.127 92.3047 169.814C92.1039 169.502 92.0032 169.143 92.0032 168.737V161.733ZM94.4649 168.737C94.4649 168.984 94.5762 169.189 94.8023 169.349C95.0249 169.515 95.3151 169.595 95.6673 169.595C96.0223 169.595 96.3132 169.515 96.535 169.349C96.7612 169.189 96.8724 168.984 96.8724 168.737V161.733C96.8724 161.494 96.7611 161.288 96.535 161.122C96.3132 160.961 96.0223 160.882 95.6673 160.882C95.3151 160.882 95.0249 160.961 94.8023 161.122C94.5762 161.288 94.4649 161.494 94.4649 161.733V168.737Z" fill="#0D0D0C"/>
<path d="M109.934 161.733C109.934 161.334 110.034 160.975 110.235 160.663C110.436 160.351 110.705 160.085 111.042 159.858C111.38 159.633 111.771 159.466 112.212 159.347C112.654 159.233 113.117 159.175 113.598 159.175C114.082 159.175 114.541 159.233 114.986 159.347C115.427 159.466 115.815 159.633 116.153 159.858C116.493 160.085 116.759 160.351 116.963 160.663C117.161 160.975 117.261 161.334 117.261 161.733V168.737C117.261 169.143 117.161 169.502 116.963 169.814C116.759 170.127 116.493 170.393 116.153 170.618C115.815 170.838 115.427 171.01 114.986 171.13C114.541 171.243 114.082 171.303 113.598 171.303C113.117 171.303 112.654 171.243 112.212 171.13C111.771 171.01 111.38 170.838 111.042 170.618C110.705 170.393 110.436 170.127 110.235 169.814C110.034 169.502 109.934 169.143 109.934 168.737V161.733ZM112.395 168.737C112.395 168.984 112.507 169.189 112.733 169.349C112.955 169.515 113.246 169.595 113.598 169.595C113.952 169.595 114.244 169.515 114.466 169.349C114.692 169.189 114.804 168.984 114.804 168.737V161.733C114.804 161.494 114.692 161.288 114.466 161.122C114.244 160.961 113.952 160.882 113.598 160.882C113.246 160.882 112.955 160.961 112.733 161.122C112.507 161.288 112.395 161.494 112.395 161.733V168.737Z" fill="#0D0D0C"/>
<path d="M118.901 161.733C118.901 161.334 119.002 160.975 119.202 160.663C119.403 160.351 119.673 160.085 120.01 159.858C120.347 159.633 120.738 159.466 121.179 159.347C121.62 159.233 122.084 159.175 122.564 159.175C123.049 159.175 123.508 159.233 123.953 159.347C124.394 159.466 124.782 159.633 125.12 159.858C125.461 160.085 125.726 160.351 125.93 160.663C126.128 160.975 126.228 161.334 126.228 161.733V168.737C126.228 169.143 126.128 169.502 125.93 169.814C125.726 170.127 125.461 170.393 125.12 170.618C124.782 170.838 124.394 171.01 123.953 171.13C123.508 171.243 123.049 171.303 122.564 171.303C122.084 171.303 121.62 171.243 121.179 171.13C120.738 171.01 120.347 170.838 120.01 170.618C119.673 170.393 119.403 170.127 119.202 169.814C119.002 169.502 118.901 169.143 118.901 168.737V161.733ZM121.362 168.737C121.362 168.984 121.474 169.189 121.699 169.349C121.922 169.515 122.213 169.595 122.564 169.595C122.92 169.595 123.21 169.515 123.433 169.349C123.658 169.189 123.77 168.984 123.77 168.737V161.733C123.77 161.494 123.658 161.288 123.433 161.122C123.21 160.961 122.92 160.882 122.564 160.882C122.213 160.882 121.922 160.961 121.699 161.122C121.474 161.288 121.362 161.494 121.362 161.733V168.737Z" fill="#0D0D0C"/>
<path d="M127.868 161.733C127.868 161.334 127.969 160.975 128.169 160.663C128.37 160.351 128.639 160.085 128.977 159.858C129.314 159.633 129.705 159.466 130.147 159.347C130.588 159.233 131.05 159.175 131.531 159.175C132.016 159.175 132.475 159.233 132.92 159.347C133.361 159.466 133.749 159.633 134.086 159.858C134.427 160.085 134.693 160.351 134.897 160.663C135.094 160.975 135.195 161.334 135.195 161.733V168.737C135.195 169.143 135.094 169.502 134.897 169.814C134.693 170.127 134.427 170.393 134.086 170.618C133.749 170.838 133.361 171.01 132.92 171.13C132.475 171.243 132.016 171.303 131.531 171.303C131.05 171.303 130.588 171.243 130.147 171.13C129.705 171.01 129.314 170.838 128.977 170.618C128.639 170.393 128.37 170.127 128.169 169.814C127.969 169.502 127.868 169.143 127.868 168.737V161.733ZM130.33 168.737C130.33 168.984 130.441 169.189 130.667 169.349C130.889 169.515 131.18 169.595 131.531 169.595C131.887 169.595 132.178 169.515 132.4 169.349C132.626 169.189 132.737 168.984 132.737 168.737V161.733C132.737 161.494 132.626 161.288 132.4 161.122C132.178 160.961 131.887 160.882 131.531 160.882C131.18 160.882 130.889 160.961 130.667 161.122C130.441 161.288 130.33 161.494 130.33 161.733V168.737Z" fill="#0D0D0C"/>
<path d="M136.835 161.733C136.835 161.334 136.936 160.975 137.136 160.663C137.338 160.351 137.607 160.085 137.944 159.858C138.281 159.633 138.672 159.466 139.114 159.347C139.555 159.233 140.018 159.175 140.498 159.175C140.984 159.175 141.443 159.233 141.887 159.347C142.329 159.466 142.716 159.633 143.054 159.858C143.395 160.085 143.66 160.351 143.865 160.663C144.062 160.975 144.163 161.334 144.163 161.733V168.737C144.163 169.143 144.062 169.502 143.865 169.814C143.66 170.127 143.395 170.393 143.054 170.618C142.716 170.838 142.329 171.01 141.887 171.13C141.443 171.243 140.984 171.303 140.498 171.303C140.018 171.303 139.555 171.243 139.114 171.13C138.672 171.01 138.281 170.838 137.944 170.618C137.607 170.393 137.338 170.127 137.136 169.814C136.936 169.502 136.835 169.143 136.835 168.737V161.733ZM139.297 168.737C139.297 168.984 139.408 169.189 139.634 169.349C139.856 169.515 140.147 169.595 140.498 169.595C140.854 169.595 141.144 169.515 141.367 169.349C141.594 169.189 141.704 168.984 141.704 168.737V161.733C141.704 161.494 141.594 161.288 141.367 161.122C141.144 160.961 140.854 160.882 140.498 160.882C140.147 160.882 139.856 160.961 139.634 161.122C139.408 161.288 139.297 161.494 139.297 161.733V168.737Z" fill="#0D0D0C"/>
<path d="M154.766 161.733C154.766 161.334 154.866 160.975 155.068 160.663C155.268 160.351 155.537 160.085 155.874 159.858C156.211 159.633 156.603 159.466 157.044 159.347C157.486 159.233 157.948 159.175 158.43 159.175C158.913 159.175 159.373 159.233 159.819 159.347C160.26 159.466 160.646 159.633 160.984 159.858C161.325 160.085 161.591 160.351 161.795 160.663C161.993 160.975 162.093 161.334 162.093 161.733V168.737C162.093 169.143 161.993 169.502 161.795 169.814C161.591 170.127 161.325 170.393 160.984 170.618C160.646 170.838 160.259 171.01 159.819 171.13C159.373 171.243 158.913 171.303 158.43 171.303C157.948 171.303 157.486 171.243 157.044 171.13C156.603 171.01 156.211 170.838 155.874 170.618C155.537 170.393 155.268 170.127 155.068 169.814C154.866 169.502 154.766 169.143 154.766 168.737V161.733ZM157.227 168.737C157.227 168.984 157.339 169.189 157.565 169.349C157.787 169.515 158.077 169.595 158.43 169.595C158.785 169.595 159.075 169.515 159.298 169.349C159.523 169.189 159.635 168.984 159.635 168.737V161.733C159.635 161.494 159.523 161.288 159.298 161.122C159.075 160.961 158.785 160.882 158.43 160.882C158.077 160.882 157.787 160.961 157.565 161.122C157.338 161.288 157.227 161.494 157.227 161.733V168.737Z" fill="#0D0D0C"/>
<path d="M163.733 161.733C163.733 161.334 163.833 160.975 164.034 160.663C164.235 160.351 164.504 160.085 164.842 159.858C165.178 159.633 165.571 159.466 166.012 159.347C166.453 159.233 166.916 159.175 167.396 159.175C167.881 159.175 168.34 159.233 168.785 159.347C169.226 159.466 169.614 159.633 169.952 159.858C170.292 160.085 170.558 160.351 170.763 160.663C170.96 160.975 171.06 161.334 171.06 161.733V168.737C171.06 169.143 170.96 169.502 170.763 169.814C170.558 170.127 170.292 170.393 169.952 170.618C169.614 170.838 169.226 171.01 168.785 171.13C168.34 171.243 167.881 171.303 167.396 171.303C166.916 171.303 166.453 171.243 166.012 171.13C165.571 171.01 165.178 170.838 164.842 170.618C164.504 170.393 164.235 170.127 164.034 169.814C163.833 169.502 163.733 169.143 163.733 168.737V161.733ZM166.194 168.737C166.194 168.984 166.306 169.189 166.531 169.349C166.754 169.515 167.045 169.595 167.396 169.595C167.751 169.595 168.042 169.515 168.265 169.349C168.491 169.189 168.602 168.984 168.602 168.737V161.733C168.602 161.494 168.491 161.288 168.265 161.122C168.042 160.961 167.751 160.882 167.396 160.882C167.045 160.882 166.754 160.961 166.531 161.122C166.306 161.288 166.194 161.494 166.194 161.733V168.737Z" fill="#0D0D0C"/>
<path d="M172.7 161.733C172.7 161.334 172.801 160.975 173.001 160.663C173.202 160.351 173.471 160.085 173.809 159.858C174.146 159.633 174.537 159.466 174.978 159.347C175.42 159.233 175.882 159.175 176.364 159.175C176.848 159.175 177.307 159.233 177.752 159.347C178.193 159.466 178.581 159.633 178.918 159.858C179.259 160.085 179.525 160.351 179.729 160.663C179.927 160.975 180.028 161.334 180.028 161.733V168.737C180.028 169.143 179.927 169.502 179.729 169.814C179.525 170.127 179.259 170.393 178.918 170.618C178.581 170.838 178.193 171.01 177.752 171.13C177.307 171.243 176.847 171.303 176.364 171.303C175.882 171.303 175.42 171.243 174.978 171.13C174.537 171.01 174.146 170.838 173.809 170.618C173.471 170.393 173.202 170.127 173.001 169.814C172.801 169.502 172.7 169.143 172.7 168.737V161.733ZM175.161 168.737C175.161 168.984 175.273 169.189 175.499 169.349C175.721 169.515 176.012 169.595 176.364 169.595C176.719 169.595 177.01 169.515 177.232 169.349C177.458 169.189 177.569 168.984 177.569 168.737V161.733C177.569 161.494 177.457 161.288 177.232 161.122C177.01 160.961 176.719 160.882 176.364 160.882C176.012 160.882 175.721 160.961 175.499 161.122C175.273 161.288 175.161 161.494 175.161 161.733V168.737Z" fill="#0D0D0C"/>
<path d="M181.667 161.733C181.667 161.334 181.767 160.975 181.968 160.663C182.17 160.351 182.439 160.085 182.776 159.858C183.113 159.633 183.504 159.466 183.946 159.347C184.386 159.233 184.85 159.175 185.33 159.175C185.815 159.175 186.275 159.233 186.719 159.347C187.161 159.466 187.548 159.633 187.886 159.858C188.227 160.085 188.491 160.351 188.696 160.663C188.894 160.975 188.994 161.334 188.994 161.733V168.737C188.994 169.143 188.893 169.502 188.696 169.814C188.491 170.127 188.227 170.393 187.886 170.618C187.548 170.838 187.161 171.01 186.719 171.13C186.275 171.243 185.815 171.303 185.33 171.303C184.85 171.303 184.386 171.243 183.946 171.13C183.504 171.01 183.113 170.838 182.776 170.618C182.439 170.393 182.17 170.127 181.968 169.814C181.767 169.502 181.667 169.143 181.667 168.737V161.733ZM184.129 168.737C184.129 168.984 184.24 169.189 184.466 169.349C184.688 169.515 184.979 169.595 185.33 169.595C185.686 169.595 185.976 169.515 186.199 169.349C186.426 169.189 186.536 168.984 186.536 168.737V161.733C186.536 161.494 186.425 161.288 186.199 161.122C185.976 160.961 185.686 160.882 185.33 160.882C184.979 160.882 184.688 160.961 184.466 161.122C184.24 161.288 184.129 161.494 184.129 161.733V168.737Z" fill="#0D0D0C"/>
<path d="M199.597 161.733C199.597 161.334 199.698 160.975 199.9 160.663C200.1 160.351 200.369 160.085 200.706 159.858C201.043 159.633 201.434 159.466 201.876 159.347C202.318 159.233 202.78 159.175 203.262 159.175C203.746 159.175 204.205 159.233 204.65 159.347C205.092 159.466 205.479 159.633 205.816 159.858C206.157 160.085 206.423 160.351 206.627 160.663C206.824 160.975 206.925 161.334 206.925 161.733V168.737C206.925 169.143 206.824 169.502 206.627 169.814C206.423 170.127 206.157 170.393 205.816 170.618C205.479 170.838 205.092 171.01 204.65 171.13C204.205 171.243 203.746 171.303 203.262 171.303C202.78 171.303 202.318 171.243 201.876 171.13C201.434 171.01 201.043 170.838 200.706 170.618C200.369 170.393 200.1 170.127 199.9 169.814C199.698 169.502 199.597 169.143 199.597 168.737V161.733ZM202.059 168.737C202.059 168.984 202.17 169.189 202.397 169.349C202.619 169.515 202.909 169.595 203.262 169.595C203.616 169.595 203.907 169.515 204.129 169.349C204.355 169.189 204.467 168.984 204.467 168.737V161.733C204.467 161.494 204.355 161.288 204.129 161.122C203.907 160.961 203.617 160.882 203.262 160.882C202.909 160.882 202.619 160.961 202.397 161.122C202.17 161.288 202.059 161.494 202.059 161.733V168.737Z" fill="#0D0D0C"/>
<path d="M208.565 161.733C208.565 161.334 208.665 160.975 208.866 160.663C209.067 160.351 209.336 160.085 209.673 159.858C210.011 159.633 210.402 159.466 210.843 159.347C211.285 159.233 211.748 159.175 212.228 159.175C212.713 159.175 213.172 159.233 213.617 159.347C214.058 159.466 214.445 159.633 214.783 159.858C215.124 160.085 215.39 160.351 215.594 160.663C215.791 160.975 215.892 161.334 215.892 161.733V168.737C215.892 169.143 215.792 169.502 215.594 169.814C215.39 170.127 215.124 170.393 214.783 170.618C214.445 170.838 214.058 171.01 213.617 171.13C213.172 171.243 212.713 171.303 212.228 171.303C211.748 171.303 211.285 171.243 210.843 171.13C210.402 171.01 210.011 170.838 209.673 170.618C209.336 170.393 209.067 170.127 208.866 169.814C208.665 169.502 208.565 169.143 208.565 168.737V161.733ZM211.026 168.737C211.026 168.984 211.138 169.189 211.363 169.349C211.586 169.515 211.877 169.595 212.228 169.595C212.583 169.595 212.874 169.515 213.097 169.349C213.323 169.189 213.434 168.984 213.434 168.737V161.733C213.434 161.494 213.323 161.288 213.097 161.122C212.874 160.961 212.583 160.882 212.228 160.882C211.877 160.882 211.586 160.961 211.363 161.122C211.138 161.288 211.026 161.494 211.026 161.733V168.737Z" fill="#0D0D0C"/>
<path d="M217.532 161.733C217.532 161.334 217.632 160.975 217.833 160.663C218.033 160.351 218.303 160.085 218.64 159.858C218.977 159.633 219.369 159.466 219.81 159.347C220.252 159.233 220.714 159.175 221.195 159.175C221.679 159.175 222.139 159.233 222.585 159.347C223.025 159.466 223.414 159.633 223.75 159.858C224.091 160.085 224.357 160.351 224.561 160.663C224.759 160.975 224.859 161.334 224.859 161.733V168.737C224.859 169.143 224.759 169.502 224.561 169.814C224.357 170.127 224.091 170.393 223.75 170.618C223.414 170.838 223.025 171.01 222.585 171.13C222.139 171.243 221.679 171.303 221.195 171.303C220.714 171.303 220.252 171.243 219.81 171.13C219.369 171.01 218.977 170.838 218.64 170.618C218.303 170.393 218.033 170.127 217.833 169.814C217.632 169.502 217.532 169.143 217.532 168.737V161.733ZM219.993 168.737C219.993 168.984 220.105 169.189 220.33 169.349C220.553 169.515 220.844 169.595 221.195 169.595C221.55 169.595 221.841 169.515 222.064 169.349C222.289 169.189 222.401 168.984 222.401 168.737V161.733C222.401 161.494 222.289 161.288 222.064 161.122C221.841 160.961 221.55 160.882 221.195 160.882C220.844 160.882 220.553 160.961 220.33 161.122C220.105 161.288 219.993 161.494 219.993 161.733V168.737Z" fill="#0D0D0C"/>
<path d="M226.499 161.733C226.499 161.334 226.599 160.975 226.8 160.663C227.001 160.351 227.271 160.085 227.608 159.858C227.946 159.633 228.336 159.466 228.777 159.347C229.219 159.233 229.682 159.175 230.162 159.175C230.647 159.175 231.106 159.233 231.551 159.347C231.992 159.466 232.38 159.633 232.718 159.858C233.059 160.085 233.324 160.351 233.528 160.663C233.726 160.975 233.826 161.334 233.826 161.733V168.737C233.826 169.143 233.726 169.502 233.528 169.814C233.324 170.127 233.059 170.393 232.718 170.618C232.38 170.838 231.992 171.01 231.551 171.13C231.106 171.243 230.647 171.303 230.162 171.303C229.682 171.303 229.219 171.243 228.777 171.13C228.337 171.01 227.946 170.838 227.608 170.618C227.271 170.393 227.001 170.127 226.8 169.814C226.6 169.502 226.499 169.143 226.499 168.737V161.733ZM228.96 168.737C228.96 168.984 229.072 169.189 229.297 169.349C229.52 169.515 229.811 169.595 230.162 169.595C230.518 169.595 230.808 169.515 231.031 169.349C231.257 169.189 231.368 168.984 231.368 168.737V161.733C231.368 161.494 231.257 161.288 231.031 161.122C230.808 160.961 230.518 160.882 230.162 160.882C229.811 160.882 229.52 160.961 229.297 161.122C229.072 161.288 228.96 161.494 228.96 161.733V168.737Z" fill="#0D0D0C"/>
<path d="M204.413 189.948C204.43 190.036 204.453 190.122 204.53 190.228C205.85 187.139 207.17 184.051 208.489 180.968C209.829 180.968 211.155 180.968 212.513 180.968C212.441 181.138 212.38 181.288 212.313 181.436C210.345 185.785 208.376 190.134 206.413 194.485C206.338 194.65 206.248 194.714 206.047 194.712C204.858 194.703 203.669 194.704 202.48 194.711C202.3 194.713 202.225 194.672 202.176 194.499C201.183 190.918 200.173 187.34 199.188 183.757" fill="black"/>
<path d="M199.188 183.757C199.011 183.115 198.663 182.67 198 182.397C196.91 181.948 195.776 181.635 194.617 181.384C194.567 181.373 194.518 181.355 194.468 181.34C194.468 181.307 194.468 181.275 194.468 181.241C194.504 180.972 194.688 180.946 194.944 180.948C196.962 180.958 198.979 180.954 200.997 180.954C201.998 180.954 202.686 181.472 202.873 182.383C203.39 184.904 203.899 187.426 204.412 189.948" fill="white"/>
<path d="M226.299 180.703C226.73 180.769 227.165 180.821 227.592 180.906C228.012 180.99 228.425 181.106 228.84 181.212C228.941 181.238 229.036 181.281 229.153 181.322C228.931 182.283 228.711 183.236 228.491 184.189C227.985 184.041 227.501 183.873 227.003 183.761C226.106 183.56 225.19 183.472 224.286 183.697C223.96 183.779 223.63 183.95 223.375 184.156C222.942 184.507 222.942 185.017 223.359 185.383C223.645 185.633 223.979 185.841 224.317 186.026C224.991 186.394 225.699 186.711 226.363 187.094C227.257 187.606 228.001 188.263 228.298 189.24C228.732 190.658 228.258 192.551 226.552 193.692C225.57 194.348 224.458 194.692 223.275 194.832C221.414 195.053 219.588 194.885 217.809 194.319C217.71 194.288 217.615 194.247 217.489 194.2C217.719 193.201 217.947 192.21 218.181 191.197C218.331 191.258 218.461 191.306 218.586 191.361C219.687 191.844 220.847 192.076 222.063 192.063C222.62 192.057 223.167 191.977 223.671 191.731C224.59 191.281 224.712 190.408 223.902 189.814C223.506 189.524 223.05 189.295 222.599 189.077C221.848 188.715 221.105 188.348 220.452 187.84C218.589 186.391 218.827 184.365 219.835 183.002C220.665 181.881 221.884 181.288 223.271 180.964C223.712 180.861 224.171 180.822 224.621 180.752C224.688 180.741 224.752 180.72 224.819 180.703C225.312 180.703 225.806 180.703 226.299 180.703Z" fill="black"/>
<path d="M242.029 194.694C240.827 194.694 239.674 194.694 238.491 194.694C238.378 194.205 238.263 193.715 238.155 193.224C238.029 192.647 238.032 192.647 237.386 192.647C236.039 192.647 234.691 192.65 233.343 192.644C233.156 192.642 233.064 192.693 233.003 192.862C232.8 193.417 232.582 193.968 232.357 194.515C232.325 194.593 232.212 194.694 232.136 194.696C230.859 194.707 229.583 194.704 228.279 194.704C228.311 194.617 228.332 194.549 228.362 194.485C230.24 190.331 232.117 186.178 233.997 182.026C234.315 181.322 234.904 180.959 235.722 180.958C236.778 180.957 237.835 180.957 238.93 180.957C239.962 185.531 240.993 190.099 242.029 194.694ZM237.39 189.841C237.003 188.122 236.624 186.438 236.244 184.754C236.225 184.751 236.205 184.749 236.185 184.746C235.525 186.435 234.864 188.123 234.193 189.841C235.276 189.841 236.302 189.841 237.39 189.841Z" fill="black"/>
<path d="M211.004 194.707C212.069 190.102 213.125 185.533 214.18 180.968C215.465 180.968 216.723 180.968 218.012 180.968C217.91 181.422 217.812 181.858 217.713 182.295C216.783 186.325 215.849 190.353 214.928 194.385C214.87 194.643 214.77 194.719 214.486 194.714C213.438 194.696 212.389 194.707 211.341 194.707C211.244 194.707 211.149 194.707 211.004 194.707Z" fill="black"/>
<path d="M212.25 147.25V118.512C212.25 117.901 212.462 117.307 212.854 116.824C213.245 116.341 213.794 115.996 214.413 115.843C215.033 115.689 215.688 115.737 216.276 115.978C216.864 116.218 217.351 116.639 217.662 117.173L234.338 145.827C234.649 146.361 235.136 146.782 235.724 147.022C236.312 147.263 236.967 147.311 237.587 147.157C238.206 147.004 238.755 146.659 239.146 146.176C239.538 145.693 239.75 145.099 239.75 144.488V115.75" stroke="black" stroke-width="2" stroke-linecap="round" stroke-linejoin="round"/>
<path d="M206.75 126.25H245.25" stroke="black" stroke-width="2" stroke-linecap="round" stroke-linejoin="round"/>
<path d="M206.75 136.75H245.25" stroke="black" stroke-width="2" stroke-linecap="round" stroke-linejoin="round"/>
</svg>
